<svg width="169" height="165" viewBox="0 0 169 165" fill="none" xmlns="http://www.w3.org/2000/svg">
<path d="M167 80V-3H84.5006H2.00127V80C1.83461 107.667 18.0012 163 84.0006 163C150 163 166.833 107.667 167 80Z" stroke="white" stroke-width="3"/>
<circle cx="84.5" cy="110.5" r="52" fill="url(#paint0_linear)" stroke="white" stroke-width="3"/>
<path d="M28.0926 25.112C27.1126 25.112 26.2259 24.8973 25.4326 24.468C24.6486 24.0293 24.0326 23.432 23.5846 22.676C23.1366 21.9107 22.9126 21.052 22.9126 20.1C22.9126 19.148 23.1366 18.294 23.5846 17.538C24.0326 16.7727 24.6532 16.1753 25.4466 15.746C26.2399 15.3073 27.1266 15.088 28.1066 15.088C28.8719 15.088 29.5719 15.2187 30.2066 15.48C30.8412 15.732 31.3826 16.11 31.8306 16.614L30.9206 17.496C30.1832 16.7213 29.2639 16.334 28.1626 16.334C27.4346 16.334 26.7766 16.4973 26.1886 16.824C25.6006 17.1507 25.1386 17.6033 24.8026 18.182C24.4759 18.7513 24.3126 19.3907 24.3126 20.1C24.3126 20.8093 24.4759 21.4533 24.8026 22.032C25.1386 22.6013 25.6006 23.0493 26.1886 23.376C26.7766 23.7027 27.4346 23.866 28.1626 23.866C29.2546 23.866 30.1739 23.474 30.9206 22.69L31.8306 23.572C31.3826 24.076 30.8366 24.4587 30.1926 24.72C29.5579 24.9813 28.8579 25.112 28.0926 25.112ZM39.9269 21.332C39.9269 21.4347 39.9176 21.57 39.8989 21.738H33.8789C33.9629 22.3913 34.2476 22.9187 34.7329 23.32C35.2276 23.712 35.8389 23.908 36.5669 23.908C37.4536 23.908 38.1676 23.6093 38.7089 23.012L39.4509 23.88C39.1149 24.272 38.6949 24.5707 38.1909 24.776C37.6963 24.9813 37.1409 25.084 36.5249 25.084C35.7409 25.084 35.0456 24.9253 34.4389 24.608C33.8323 24.2813 33.3609 23.8287 33.0249 23.25C32.6983 22.6713 32.5349 22.018 32.5349 21.29C32.5349 20.5713 32.6936 19.9227 33.0109 19.344C33.3376 18.7653 33.7809 18.3173 34.3409 18C34.9103 17.6733 35.5496 17.51 36.2589 17.51C36.9683 17.51 37.5983 17.6733 38.1489 18C38.7089 18.3173 39.1429 18.7653 39.4509 19.344C39.7683 19.9227 39.9269 20.5853 39.9269 21.332ZM36.2589 18.644C35.6149 18.644 35.0736 18.84 34.6349 19.232C34.2056 19.624 33.9536 20.1373 33.8789 20.772H38.6389C38.5643 20.1467 38.3076 19.638 37.8689 19.246C37.4396 18.8447 36.9029 18.644 36.2589 18.644ZM42.012 17.58H43.356V22.984L47.906 17.58H49.124V25H47.78V19.596L43.244 25H42.012V17.58ZM45.484 16.614C44.7933 16.614 44.2566 16.4507 43.874 16.124C43.4913 15.788 43.2953 15.3073 43.286 14.682H44.196C44.2053 15.0273 44.322 15.3073 44.546 15.522C44.7793 15.7273 45.0873 15.83 45.47 15.83C45.8526 15.83 46.1606 15.7273 46.394 15.522C46.6273 15.3073 46.7486 15.0273 46.758 14.682H47.696C47.6866 15.3073 47.486 15.788 47.094 16.124C46.702 16.4507 46.1653 16.614 45.484 16.614ZM57.6547 17.58V25H56.3107V22.004C55.508 22.3773 54.71 22.564 53.9167 22.564C52.9927 22.564 52.2787 22.3493 51.7747 21.92C51.2707 21.4907 51.0187 20.8467 51.0187 19.988V17.58H52.3627V19.904C52.3627 20.4173 52.5213 20.8047 52.8387 21.066C53.1653 21.3273 53.618 21.458 54.1967 21.458C54.85 21.458 55.5547 21.2947 56.3107 20.968V17.58H57.6547ZM62.9099 17.51C63.9366 17.51 64.7206 17.762 65.2619 18.266C65.8126 18.77 66.0879 19.5213 66.0879 20.52V25H64.8139V24.02C64.5899 24.3653 64.2679 24.6313 63.8479 24.818C63.4372 24.9953 62.9472 25.084 62.3779 25.084C61.5472 25.084 60.8799 24.8833 60.3759 24.482C59.8812 24.0807 59.6339 23.5533 59.6339 22.9C59.6339 22.2467 59.8719 21.724 60.3479 21.332C60.8239 20.9307 61.5799 20.73 62.6159 20.73H64.7439V20.464C64.7439 19.8853 64.5759 19.442 64.2399 19.134C63.9039 18.826 63.4092 18.672 62.7559 18.672C62.3172 18.672 61.8879 18.7467 61.4679 18.896C61.0479 19.036 60.6932 19.2273 60.4039 19.47L59.8439 18.462C60.2266 18.154 60.6839 17.9207 61.2159 17.762C61.7479 17.594 62.3126 17.51 62.9099 17.51ZM62.6019 24.048C63.1152 24.048 63.5586 23.936 63.9319 23.712C64.3052 23.4787 64.5759 23.152 64.7439 22.732V21.696H62.6719C61.5332 21.696 60.9639 22.0787 60.9639 22.844C60.9639 23.2173 61.1086 23.5113 61.3979 23.726C61.6872 23.9407 62.0886 24.048 62.6019 24.048ZM71.7421 25.084C70.9861 25.084 70.3094 24.9207 69.7121 24.594C69.1241 24.2673 68.6621 23.8193 68.3261 23.25C67.9901 22.6713 67.8221 22.018 67.8221 21.29C67.8221 20.562 67.9901 19.9133 68.3261 19.344C68.6621 18.7653 69.1241 18.3173 69.7121 18C70.3094 17.6733 70.9861 17.51 71.7421 17.51C72.4141 17.51 73.0114 17.6453 73.5341 17.916C74.0661 18.1867 74.4767 18.5787 74.7661 19.092L73.7441 19.75C73.5107 19.3953 73.2214 19.1293 72.8761 18.952C72.5307 18.7747 72.1481 18.686 71.7281 18.686C71.2427 18.686 70.8041 18.7933 70.4121 19.008C70.0294 19.2227 69.7261 19.5307 69.5021 19.932C69.2874 20.324 69.1801 20.7767 69.1801 21.29C69.1801 21.8127 69.2874 22.2747 69.5021 22.676C69.7261 23.068 70.0294 23.3713 70.4121 23.586C70.8041 23.8007 71.2427 23.908 71.7281 23.908C72.1481 23.908 72.5307 23.8193 72.8761 23.642C73.2214 23.4647 73.5107 23.1987 73.7441 22.844L74.7661 23.488C74.4767 24.0013 74.0661 24.398 73.5341 24.678C73.0114 24.9487 72.4141 25.084 71.7421 25.084ZM87.1399 17.58V25H85.7959V18.756H81.6099V25H80.2659V17.58H87.1399ZM93.6745 17.51C94.3931 17.51 95.0371 17.6687 95.6065 17.986C96.1758 18.3033 96.6191 18.7467 96.9365 19.316C97.2631 19.8853 97.4265 20.5433 97.4265 21.29C97.4265 22.0367 97.2631 22.6993 96.9365 23.278C96.6191 23.8473 96.1758 24.2907 95.6065 24.608C95.0371 24.9253 94.3931 25.084 93.6745 25.084C93.1425 25.084 92.6525 24.9813 92.2045 24.776C91.7658 24.5707 91.3925 24.272 91.0845 23.88V27.716H89.7405V17.58H91.0285V18.756C91.3271 18.3453 91.7051 18.0373 92.1625 17.832C92.6198 17.6173 93.1238 17.51 93.6745 17.51ZM93.5625 23.908C94.0385 23.908 94.4631 23.8007 94.8365 23.586C95.2191 23.362 95.5178 23.054 95.7325 22.662C95.9565 22.2607 96.0685 21.8033 96.0685 21.29C96.0685 20.7767 95.9565 20.324 95.7325 19.932C95.5178 19.5307 95.2191 19.2227 94.8365 19.008C94.4631 18.7933 94.0385 18.686 93.5625 18.686C93.0958 18.686 92.6711 18.798 92.2885 19.022C91.9151 19.2367 91.6165 19.54 91.3925 19.932C91.1778 20.324 91.0705 20.7767 91.0705 21.29C91.0705 21.8033 91.1778 22.2607 91.3925 22.662C91.6071 23.054 91.9058 23.362 92.2885 23.586C92.6711 23.8007 93.0958 23.908 93.5625 23.908ZM102.557 25.084C101.82 25.084 101.157 24.9207 100.569 24.594C99.9811 24.2673 99.5191 23.8193 99.1831 23.25C98.8565 22.6713 98.6931 22.018 98.6931 21.29C98.6931 20.562 98.8565 19.9133 99.1831 19.344C99.5191 18.7653 99.9811 18.3173 100.569 18C101.157 17.6733 101.82 17.51 102.557 17.51C103.294 17.51 103.952 17.6733 104.531 18C105.119 18.3173 105.576 18.7653 105.903 19.344C106.239 19.9133 106.407 20.562 106.407 21.29C106.407 22.018 106.239 22.6713 105.903 23.25C105.576 23.8193 105.119 24.2673 104.531 24.594C103.952 24.9207 103.294 25.084 102.557 25.084ZM102.557 23.908C103.033 23.908 103.458 23.8007 103.831 23.586C104.214 23.362 104.512 23.054 104.727 22.662C104.942 22.2607 105.049 21.8033 105.049 21.29C105.049 20.7767 104.942 20.324 104.727 19.932C104.512 19.5307 104.214 19.2227 103.831 19.008C103.458 18.7933 103.033 18.686 102.557 18.686C102.081 18.686 101.652 18.7933 101.269 19.008C100.896 19.2227 100.597 19.5307 100.373 19.932C100.158 20.324 100.051 20.7767 100.051 21.29C100.051 21.8033 100.158 22.2607 100.373 22.662C100.597 23.054 100.896 23.362 101.269 23.586C101.652 23.8007 102.081 23.908 102.557 23.908ZM112.736 25L110.594 22.158L108.424 25H106.926L109.852 21.206L107.066 17.58H108.564L110.608 20.254L112.638 17.58H114.108L111.308 21.206L114.262 25H112.736ZM118.608 25.084C117.871 25.084 117.208 24.9207 116.62 24.594C116.032 24.2673 115.57 23.8193 115.234 23.25C114.907 22.6713 114.744 22.018 114.744 21.29C114.744 20.562 114.907 19.9133 115.234 19.344C115.57 18.7653 116.032 18.3173 116.62 18C117.208 17.6733 117.871 17.51 118.608 17.51C119.345 17.51 120.003 17.6733 120.582 18C121.17 18.3173 121.627 18.7653 121.954 19.344C122.29 19.9133 122.458 20.562 122.458 21.29C122.458 22.018 122.29 22.6713 121.954 23.25C121.627 23.8193 121.17 24.2673 120.582 24.594C120.003 24.9207 119.345 25.084 118.608 25.084ZM118.608 23.908C119.084 23.908 119.509 23.8007 119.882 23.586C120.265 23.362 120.563 23.054 120.778 22.662C120.993 22.2607 121.1 21.8033 121.1 21.29C121.1 20.7767 120.993 20.324 120.778 19.932C120.563 19.5307 120.265 19.2227 119.882 19.008C119.509 18.7933 119.084 18.686 118.608 18.686C118.132 18.686 117.703 18.7933 117.32 19.008C116.947 19.2227 116.648 19.5307 116.424 19.932C116.209 20.324 116.102 20.7767 116.102 21.29C116.102 21.8033 116.209 22.2607 116.424 22.662C116.648 23.054 116.947 23.362 117.32 23.586C117.703 23.8007 118.132 23.908 118.608 23.908ZM131.89 23.824V26.722H130.63V25H124.428V26.722H123.154V23.824H123.546C124.022 23.796 124.349 23.46 124.526 22.816C124.703 22.172 124.825 21.262 124.89 20.086L125.002 17.58H130.756V23.824H131.89ZM126.122 20.184C126.085 21.1173 126.005 21.892 125.884 22.508C125.772 23.1147 125.562 23.5533 125.254 23.824H129.412V18.756H126.192L126.122 20.184ZM139.591 17.58V25H138.387V22.648H136.231H136.077L134.453 25H133.011L134.817 22.466C134.257 22.298 133.828 22.0227 133.529 21.64C133.23 21.248 133.081 20.7627 133.081 20.184C133.081 19.3347 133.37 18.6907 133.949 18.252C134.528 17.804 135.326 17.58 136.343 17.58H139.591ZM134.453 20.226C134.453 20.7207 134.607 21.0893 134.915 21.332C135.232 21.5653 135.704 21.682 136.329 21.682H138.387V18.756H136.385C135.097 18.756 134.453 19.246 134.453 20.226ZM147.743 18.756H145.027V25H143.683V18.756H140.967V17.58H147.743V18.756ZM40.6071 34.51C41.3258 34.51 41.9698 34.6687 42.5391 34.986C43.1084 35.3033 43.5518 35.7467 43.8691 36.316C44.1958 36.8853 44.3591 37.5433 44.3591 38.29C44.3591 39.0367 44.1958 39.6993 43.8691 40.278C43.5518 40.8473 43.1084 41.2907 42.5391 41.608C41.9698 41.9253 41.3258 42.084 40.6071 42.084C40.0751 42.084 39.5851 41.9813 39.1371 41.776C38.6984 41.5707 38.3251 41.272 38.0171 40.88V44.716H36.6731V34.58H37.9611V35.756C38.2598 35.3453 38.6378 35.0373 39.0951 34.832C39.5524 34.6173 40.0564 34.51 40.6071 34.51ZM40.4951 40.908C40.9711 40.908 41.3958 40.8007 41.7691 40.586C42.1518 40.362 42.4504 40.054 42.6651 39.662C42.8891 39.2607 43.0011 38.8033 43.0011 38.29C43.0011 37.7767 42.8891 37.324 42.6651 36.932C42.4504 36.5307 42.1518 36.2227 41.7691 36.008C41.3958 35.7933 40.9711 35.686 40.4951 35.686C40.0284 35.686 39.6038 35.798 39.2211 36.022C38.8478 36.2367 38.5491 36.54 38.3251 36.932C38.1104 37.324 38.0031 37.7767 38.0031 38.29C38.0031 38.8033 38.1104 39.2607 38.3251 39.662C38.5398 40.054 38.8384 40.362 39.2211 40.586C39.6038 40.8007 40.0284 40.908 40.4951 40.908ZM53.0178 38.332C53.0178 38.4347 53.0084 38.57 52.9898 38.738H46.9698C47.0538 39.3913 47.3384 39.9187 47.8238 40.32C48.3184 40.712 48.9298 40.908 49.6578 40.908C50.5444 40.908 51.2584 40.6093 51.7998 40.012L52.5418 40.88C52.2058 41.272 51.7858 41.5707 51.2818 41.776C50.7871 41.9813 50.2318 42.084 49.6158 42.084C48.8318 42.084 48.1364 41.9253 47.5298 41.608C46.9231 41.2813 46.4518 40.8287 46.1158 40.25C45.7891 39.6713 45.6258 39.018 45.6258 38.29C45.6258 37.5713 45.7844 36.9227 46.1018 36.344C46.4284 35.7653 46.8718 35.3173 47.4318 35C48.0011 34.6733 48.6404 34.51 49.3498 34.51C50.0591 34.51 50.6891 34.6733 51.2398 35C51.7998 35.3173 52.2338 35.7653 52.5418 36.344C52.8591 36.9227 53.0178 37.5853 53.0178 38.332ZM49.3498 35.644C48.7058 35.644 48.1644 35.84 47.7258 36.232C47.2964 36.624 47.0444 37.1373 46.9698 37.772H51.7298C51.6551 37.1467 51.3984 36.638 50.9598 36.246C50.5304 35.8447 49.9938 35.644 49.3498 35.644ZM60.5628 35.756H56.4468V42H55.1028V34.58H60.5628V35.756ZM61.9387 34.58H63.2827V39.984L67.8327 34.58H69.0507V42H67.7067V36.596L63.1707 42H61.9387V34.58ZM74.8934 42.084C74.1374 42.084 73.4608 41.9207 72.8634 41.594C72.2754 41.2673 71.8134 40.8193 71.4774 40.25C71.1414 39.6713 70.9734 39.018 70.9734 38.29C70.9734 37.562 71.1414 36.9133 71.4774 36.344C71.8134 35.7653 72.2754 35.3173 72.8634 35C73.4608 34.6733 74.1374 34.51 74.8934 34.51C75.5654 34.51 76.1628 34.6453 76.6854 34.916C77.2174 35.1867 77.6281 35.5787 77.9174 36.092L76.8954 36.75C76.6621 36.3953 76.3728 36.1293 76.0274 35.952C75.6821 35.7747 75.2994 35.686 74.8794 35.686C74.3941 35.686 73.9554 35.7933 73.5634 36.008C73.1808 36.2227 72.8774 36.5307 72.6534 36.932C72.4388 37.324 72.3314 37.7767 72.3314 38.29C72.3314 38.8127 72.4388 39.2747 72.6534 39.676C72.8774 40.068 73.1808 40.3713 73.5634 40.586C73.9554 40.8007 74.3941 40.908 74.8794 40.908C75.2994 40.908 75.6821 40.8193 76.0274 40.642C76.3728 40.4647 76.6621 40.1987 76.8954 39.844L77.9174 40.488C77.6281 41.0013 77.2174 41.398 76.6854 41.678C76.1628 41.9487 75.5654 42.084 74.8934 42.084ZM85.0918 35.756H82.3758V42H81.0318V35.756H78.3158V34.58H85.0918V35.756ZM90.4001 34.51C91.1187 34.51 91.7627 34.6687 92.3321 34.986C92.9014 35.3033 93.3447 35.7467 93.6621 36.316C93.9887 36.8853 94.1521 37.5433 94.1521 38.29C94.1521 39.0367 93.9887 39.6993 93.6621 40.278C93.3447 40.8473 92.9014 41.2907 92.3321 41.608C91.7627 41.9253 91.1187 42.084 90.4001 42.084C89.8681 42.084 89.3781 41.9813 88.9301 41.776C88.4914 41.5707 88.1181 41.272 87.8101 40.88V44.716H86.4661V34.58H87.7541V35.756C88.0527 35.3453 88.4307 35.0373 88.8881 34.832C89.3454 34.6173 89.8494 34.51 90.4001 34.51ZM90.2881 40.908C90.7641 40.908 91.1887 40.8007 91.5621 40.586C91.9447 40.362 92.2434 40.054 92.4581 39.662C92.6821 39.2607 92.7941 38.8033 92.7941 38.29C92.7941 37.7767 92.6821 37.324 92.4581 36.932C92.2434 36.5307 91.9447 36.2227 91.5621 36.008C91.1887 35.7933 90.7641 35.686 90.2881 35.686C89.8214 35.686 89.3967 35.798 89.0141 36.022C88.6407 36.2367 88.3421 36.54 88.1181 36.932C87.9034 37.324 87.7961 37.7767 87.7961 38.29C87.7961 38.8033 87.9034 39.2607 88.1181 39.662C88.3327 40.054 88.6314 40.362 89.0141 40.586C89.3967 40.8007 89.8214 40.908 90.2881 40.908ZM98.6824 34.51C99.709 34.51 100.493 34.762 101.034 35.266C101.585 35.77 101.86 36.5213 101.86 37.52V42H100.586V41.02C100.362 41.3653 100.04 41.6313 99.6204 41.818C99.2097 41.9953 98.7197 42.084 98.1504 42.084C97.3197 42.084 96.6524 41.8833 96.1484 41.482C95.6537 41.0807 95.4064 40.5533 95.4064 39.9C95.4064 39.2467 95.6444 38.724 96.1204 38.332C96.5964 37.9307 97.3524 37.73 98.3884 37.73H100.516V37.464C100.516 36.8853 100.348 36.442 100.012 36.134C99.6764 35.826 99.1817 35.672 98.5284 35.672C98.0897 35.672 97.6604 35.7467 97.2404 35.896C96.8204 36.036 96.4657 36.2273 96.1764 36.47L95.6164 35.462C95.999 35.154 96.4564 34.9207 96.9884 34.762C97.5204 34.594 98.085 34.51 98.6824 34.51ZM98.3744 41.048C98.8877 41.048 99.331 40.936 99.7044 40.712C100.078 40.4787 100.348 40.152 100.516 39.732V38.696H98.4444C97.3057 38.696 96.7364 39.0787 96.7364 39.844C96.7364 40.2173 96.881 40.5113 97.1704 40.726C97.4597 40.9407 97.861 41.048 98.3744 41.048ZM112.205 40.824V43.778H110.931V42H104.281V34.58H105.625V40.824H109.685V34.58H111.029V40.824H112.205ZM113.947 34.58H115.291V39.984L119.841 34.58H121.059V42H119.715V36.596L115.179 42H113.947V34.58ZM130.233 34.51C130.952 34.51 131.596 34.6733 132.165 35C132.735 35.3173 133.183 35.7653 133.509 36.344C133.836 36.9133 133.999 37.562 133.999 38.29C133.999 39.018 133.836 39.6713 133.509 40.25C133.183 40.8193 132.735 41.2673 132.165 41.594C131.596 41.9207 130.952 42.084 130.233 42.084C129.58 42.084 128.987 41.9487 128.455 41.678C127.923 41.4073 127.485 41.0293 127.139 40.544C126.803 40.0493 126.593 39.4893 126.509 38.864H125.011V42H123.667V34.58H125.011V37.618H126.523C126.617 37.002 126.831 36.4607 127.167 35.994C127.513 35.518 127.947 35.154 128.469 34.902C129.001 34.6407 129.589 34.51 130.233 34.51ZM130.233 40.908C130.691 40.908 131.101 40.8007 131.465 40.586C131.839 40.3713 132.133 40.068 132.347 39.676C132.562 39.2747 132.669 38.8127 132.669 38.29C132.669 37.7767 132.562 37.324 132.347 36.932C132.133 36.5307 131.839 36.2227 131.465 36.008C131.101 35.7933 130.691 35.686 130.233 35.686C129.776 35.686 129.361 35.7933 128.987 36.008C128.614 36.2227 128.32 36.5307 128.105 36.932C127.9 37.324 127.797 37.7767 127.797 38.29C127.797 38.8127 127.9 39.2747 128.105 39.676C128.32 40.068 128.614 40.3713 128.987 40.586C129.361 40.8007 129.776 40.908 130.233 40.908Z" fill="white"/>
<path d="M71.1504 90.2V107H67.2624V93.32H63.9024V90.2H71.1504ZM81.2688 107.288C79.8768 107.288 78.6368 106.944 77.5488 106.256C76.4608 105.568 75.6048 104.576 74.9808 103.28C74.3728 101.968 74.0688 100.408 74.0688 98.6C74.0688 96.792 74.3728 95.24 74.9808 93.944C75.6048 92.632 76.4608 91.632 77.5488 90.944C78.6368 90.256 79.8768 89.912 81.2688 89.912C82.6608 89.912 83.9008 90.256 84.9888 90.944C86.0768 91.632 86.9248 92.632 87.5328 93.944C88.1568 95.24 88.4688 96.792 88.4688 98.6C88.4688 100.408 88.1568 101.968 87.5328 103.28C86.9248 104.576 86.0768 105.568 84.9888 106.256C83.9008 106.944 82.6608 107.288 81.2688 107.288ZM81.2688 104C82.2928 104 83.0928 103.56 83.6688 102.68C84.2608 101.8 84.5568 100.44 84.5568 98.6C84.5568 96.76 84.2608 95.4 83.6688 94.52C83.0928 93.64 82.2928 93.2 81.2688 93.2C80.2608 93.2 79.4608 93.64 78.8688 94.52C78.2928 95.4 78.0048 96.76 78.0048 98.6C78.0048 100.44 78.2928 101.8 78.8688 102.68C79.4608 103.56 80.2608 104 81.2688 104ZM101.854 98.168C102.686 98.584 103.318 99.128 103.75 99.8C104.198 100.472 104.422 101.248 104.422 102.128C104.422 103.168 104.126 104.08 103.534 104.864C102.942 105.632 102.11 106.232 101.038 106.664C99.9659 107.08 98.7259 107.288 97.3179 107.288C95.9099 107.288 94.6699 107.08 93.5979 106.664C92.5419 106.232 91.7179 105.632 91.1259 104.864C90.5499 104.08 90.2619 103.168 90.2619 102.128C90.2619 101.248 90.4779 100.472 90.9099 99.8C91.3579 99.128 91.9899 98.584 92.8059 98.168C92.1819 97.784 91.7019 97.304 91.3659 96.728C91.0299 96.136 90.8619 95.464 90.8619 94.712C90.8619 93.736 91.1339 92.888 91.6779 92.168C92.2219 91.448 92.9819 90.896 93.9579 90.512C94.9339 90.112 96.0539 89.912 97.3179 89.912C98.5979 89.912 99.7259 90.112 100.702 90.512C101.694 90.896 102.462 91.448 103.006 92.168C103.55 92.888 103.822 93.736 103.822 94.712C103.822 95.464 103.654 96.136 103.318 96.728C102.982 97.304 102.494 97.784 101.854 98.168ZM97.3179 92.768C96.5339 92.768 95.9019 92.96 95.4219 93.344C94.9579 93.712 94.7259 94.224 94.7259 94.88C94.7259 95.52 94.9579 96.024 95.4219 96.392C95.8859 96.76 96.5179 96.944 97.3179 96.944C98.1179 96.944 98.7579 96.76 99.2379 96.392C99.7179 96.024 99.9579 95.52 99.9579 94.88C99.9579 94.224 99.7179 93.712 99.2379 93.344C98.7579 92.96 98.1179 92.768 97.3179 92.768ZM97.3179 104.432C98.2939 104.432 99.0619 104.216 99.6219 103.784C100.198 103.336 100.486 102.744 100.486 102.008C100.486 101.272 100.198 100.688 99.6219 100.256C99.0619 99.824 98.2939 99.608 97.3179 99.608C96.3579 99.608 95.5979 99.824 95.0379 100.256C94.4779 100.688 94.1979 101.272 94.1979 102.008C94.1979 102.76 94.4779 103.352 95.0379 103.784C95.5979 104.216 96.3579 104.432 97.3179 104.432ZM54.0796 119.316V129H51.2716V125.4C50.4556 125.808 49.5556 126.012 48.5716 126.012C47.2636 126.012 46.2736 125.718 45.6016 125.13C44.9416 124.53 44.6116 123.606 44.6116 122.358V119.316H47.4196V122.178C47.4196 122.766 47.5696 123.192 47.8696 123.456C48.1816 123.72 48.6256 123.852 49.2016 123.852C49.9336 123.852 50.6236 123.696 51.2716 123.384V119.316H54.0796ZM66.1898 124.194C66.1898 124.23 66.1718 124.482 66.1358 124.95H58.8098C58.9418 125.55 59.2538 126.024 59.7458 126.372C60.2378 126.72 60.8498 126.894 61.5818 126.894C62.0858 126.894 62.5298 126.822 62.9138 126.678C63.3098 126.522 63.6758 126.282 64.0118 125.958L65.5058 127.578C64.5938 128.622 63.2618 129.144 61.5098 129.144C60.4178 129.144 59.4518 128.934 58.6118 128.514C57.7718 128.082 57.1238 127.488 56.6678 126.732C56.2118 125.976 55.9838 125.118 55.9838 124.158C55.9838 123.21 56.2058 122.358 56.6498 121.602C57.1058 120.834 57.7238 120.24 58.5038 119.82C59.2958 119.388 60.1778 119.172 61.1498 119.172C62.0978 119.172 62.9558 119.376 63.7238 119.784C64.4918 120.192 65.0918 120.78 65.5238 121.548C65.9678 122.304 66.1898 123.186 66.1898 124.194ZM61.1678 121.296C60.5318 121.296 59.9978 121.476 59.5658 121.836C59.1338 122.196 58.8698 122.688 58.7738 123.312H63.5438C63.4478 122.7 63.1838 122.214 62.7518 121.854C62.3198 121.482 61.7918 121.296 61.1678 121.296ZM77.5423 119.316V129H74.7343V121.62H71.6743L71.5843 123.33C71.5363 124.602 71.4163 125.658 71.2243 126.498C71.0323 127.338 70.7203 127.998 70.2883 128.478C69.8563 128.958 69.2563 129.198 68.4883 129.198C68.0803 129.198 67.5943 129.126 67.0303 128.982L67.1743 126.678C67.3663 126.702 67.5043 126.714 67.5883 126.714C68.0083 126.714 68.3203 126.564 68.5243 126.264C68.7403 125.952 68.8843 125.562 68.9563 125.094C69.0283 124.614 69.0823 123.984 69.1183 123.204L69.2623 119.316H77.5423ZM84.7786 129.144C83.7586 129.144 82.8406 128.934 82.0246 128.514C81.2206 128.082 80.5906 127.488 80.1346 126.732C79.6786 125.976 79.4506 125.118 79.4506 124.158C79.4506 123.198 79.6786 122.34 80.1346 121.584C80.5906 120.828 81.2206 120.24 82.0246 119.82C82.8406 119.388 83.7586 119.172 84.7786 119.172C85.7986 119.172 86.7106 119.388 87.5146 119.82C88.3186 120.24 88.9486 120.828 89.4046 121.584C89.8606 122.34 90.0886 123.198 90.0886 124.158C90.0886 125.118 89.8606 125.976 89.4046 126.732C88.9486 127.488 88.3186 128.082 87.5146 128.514C86.7106 128.934 85.7986 129.144 84.7786 129.144ZM84.7786 126.84C85.4986 126.84 86.0866 126.6 86.5426 126.12C87.0106 125.628 87.2446 124.974 87.2446 124.158C87.2446 123.342 87.0106 122.694 86.5426 122.214C86.0866 121.722 85.4986 121.476 84.7786 121.476C84.0586 121.476 83.4646 121.722 82.9966 122.214C82.5286 122.694 82.2946 123.342 82.2946 124.158C82.2946 124.974 82.5286 125.628 82.9966 126.12C83.4646 126.6 84.0586 126.84 84.7786 126.84ZM99.4179 123.942C100.558 124.326 101.128 125.094 101.128 126.246C101.128 127.122 100.798 127.8 100.138 128.28C99.4779 128.76 98.4939 129 97.1859 129H92.0199V119.316H96.9699C98.1819 119.316 99.1299 119.538 99.8139 119.982C100.498 120.414 100.84 121.026 100.84 121.818C100.84 122.298 100.714 122.724 100.462 123.096C100.222 123.456 99.8739 123.738 99.4179 123.942ZM94.5939 123.294H96.7179C97.7019 123.294 98.1939 122.946 98.1939 122.25C98.1939 121.566 97.7019 121.224 96.7179 121.224H94.5939V123.294ZM96.9519 127.092C97.9839 127.092 98.4999 126.738 98.4999 126.03C98.4999 125.658 98.3799 125.388 98.1399 125.22C97.8999 125.04 97.5219 124.95 97.0059 124.95H94.5939V127.092H96.9519ZM112.631 124.194C112.631 124.23 112.613 124.482 112.577 124.95H105.251C105.383 125.55 105.695 126.024 106.187 126.372C106.679 126.72 107.291 126.894 108.023 126.894C108.527 126.894 108.971 126.822 109.355 126.678C109.751 126.522 110.117 126.282 110.453 125.958L111.947 127.578C111.035 128.622 109.703 129.144 107.951 129.144C106.859 129.144 105.893 128.934 105.053 128.514C104.213 128.082 103.565 127.488 103.109 126.732C102.653 125.976 102.425 125.118 102.425 124.158C102.425 123.21 102.647 122.358 103.091 121.602C103.547 120.834 104.165 120.24 104.945 119.82C105.737 119.388 106.619 119.172 107.591 119.172C108.539 119.172 109.397 119.376 110.165 119.784C110.933 120.192 111.533 120.78 111.965 121.548C112.409 122.304 112.631 123.186 112.631 124.194ZM107.609 121.296C106.973 121.296 106.439 121.476 106.007 121.836C105.575 122.196 105.311 122.688 105.215 123.312H109.985C109.889 122.7 109.625 122.214 109.193 121.854C108.761 121.482 108.233 121.296 107.609 121.296ZM119.05 125.328H117.592V129H114.784V119.316H117.592V123.078H119.104L121.732 119.316H124.72L121.336 123.96L124.954 129H121.642L119.05 125.328Z" fill="white"/>
<defs>
<linearGradient id="paint0_linear" x1="78.5" y1="185" x2="78.5" y2="92" gradientUnits="userSpaceOnUse">
<stop stop-color="#12FFF7"/>
<stop offset="1" stop-color="#28E17E"/>
</linearGradient>
</defs>
</svg>
