<svg width="18" height="19" viewBox="0 0 18 19" fill="none" xmlns="http://www.w3.org/2000/svg">
<path d="M9 0.8125C7.38151 0.8125 5.8776 1.2207 4.48828 2.03711C3.14193 2.82487 2.07487 3.89193 1.28711 5.23828C0.470703 6.6276 0.0625 8.13151 0.0625 9.75C0.0625 11.3685 0.470703 12.8724 1.28711 14.2617C2.07487 15.6081 3.14193 16.6751 4.48828 17.4629C5.8776 18.2793 7.38151 18.6875 9 18.6875C10.6185 18.6875 12.1224 18.2793 13.5117 17.4629C14.8581 16.6751 15.9251 15.6081 16.7129 14.2617C17.5293 12.8724 17.9375 11.3685 17.9375 9.75H16.5625C16.5625 11.125 16.2188 12.3997 15.5312 13.5742C14.8581 14.7057 13.9557 15.6081 12.8242 16.2812C11.6497 16.9688 10.375 17.3125 9 17.3125C7.625 17.3125 6.35026 16.9688 5.17578 16.2812C4.04427 15.6081 3.14193 14.7057 2.46875 13.5742C1.78125 12.3997 1.4375 11.125 1.4375 9.75C1.4375 8.375 1.78125 7.10026 2.46875 5.92578C3.14193 4.79427 4.04427 3.89193 5.17578 3.21875C6.35026 2.53125 7.625 2.1875 9 2.1875C10.3034 2.1875 11.528 2.5026 12.6738 3.13281C13.7624 3.73438 14.6504 4.5651 15.3379 5.625H11.75V7H17.25V1.5H15.875V4.05664C15.0443 3.05404 14.0417 2.26628 12.8672 1.69336C11.6497 1.10612 10.3607 0.8125 9 0.8125Z" fill="#778CA2"/>
</svg>
