<svg width="18" height="19" viewBox="0 0 18 19" fill="none" xmlns="http://www.w3.org/2000/svg">
<path d="M9 0.8125C7.38151 0.8125 5.8776 1.2207 4.48828 2.03711C3.14193 2.82487 2.07487 3.89193 1.28711 5.23828C0.470703 6.6276 0.0625 8.13151 0.0625 9.75C0.0625 11.3685 0.470703 12.8724 1.28711 14.2617C2.07487 15.6081 3.14193 16.6751 4.48828 17.4629C5.8776 18.2793 7.38151 18.6875 9 18.6875C10.6185 18.6875 12.1224 18.2793 13.5117 17.4629C14.8581 16.6751 15.9251 15.6081 16.7129 14.2617C17.5293 12.8724 17.9375 11.3685 17.9375 9.75C17.9375 8.13151 17.5293 6.6276 16.7129 5.23828C15.9251 3.89193 14.8581 2.82487 13.5117 2.03711C12.1224 1.2207 10.6185 0.8125 9 0.8125ZM8.22656 2.23047C8.24089 2.23047 8.25521 2.23047 8.26953 2.23047H8.3125V10.0293L8.50586 10.2441L13.8555 15.5723C13.1966 16.1309 12.4518 16.5605 11.6211 16.8613C10.7904 17.1621 9.91667 17.3125 9 17.3125C7.625 17.3125 6.35026 16.9688 5.17578 16.2812C4.04427 15.6081 3.14193 14.7057 2.46875 13.5742C1.78125 12.3997 1.4375 11.125 1.4375 9.75C1.4375 8.46094 1.73828 7.25781 2.33984 6.14062C2.94141 5.05208 3.75781 4.16406 4.78906 3.47656C5.82031 2.77474 6.96615 2.35938 8.22656 2.23047ZM9.6875 2.23047C10.8763 2.34505 11.972 2.71745 12.9746 3.34766C13.9772 3.96354 14.7865 4.77279 15.4023 5.77539C16.0326 6.77799 16.4049 7.8737 16.5195 9.0625H9.6875V2.23047ZM10.6758 10.4375H16.5195C16.4479 11.2253 16.2689 11.9772 15.9824 12.6934C15.696 13.3952 15.3092 14.0326 14.8223 14.6055L10.6758 10.4375Z" fill="#59BDEF"/>
</svg>
