<svg width="22" height="24" viewBox="0 0 22 24" fill="none" xmlns="http://www.w3.org/2000/svg">
<path d="M11 1.8125C10.6133 1.8125 10.2839 1.94857 10.0117 2.2207C9.75391 2.47852 9.625 2.80078 9.625 3.1875L9.64648 3.35938C8.85872 3.5599 8.14974 3.91797 7.51953 4.43359C6.88932 4.94922 6.39518 5.57943 6.03711 6.32422C5.67904 7.05469 5.5 7.84245 5.5 8.6875V14.875C5.5 15.0755 5.43555 15.2402 5.30664 15.3691C5.17773 15.498 5.01302 15.5625 4.8125 15.5625H4.125V16.9375H9.06641C8.98047 17.181 8.9375 17.4102 8.9375 17.625C8.9375 18.1836 9.13802 18.6634 9.53906 19.0645C9.95443 19.4798 10.4414 19.6875 11 19.6875C11.5586 19.6875 12.0384 19.4798 12.4395 19.0645C12.8548 18.6634 13.0625 18.1836 13.0625 17.625C13.0625 17.4102 13.0195 17.181 12.9336 16.9375H17.875V15.5625H17.1875C16.987 15.5625 16.8223 15.498 16.6934 15.3691C16.5645 15.2402 16.5 15.0755 16.5 14.875V8.88086C16.5 8.03581 16.321 7.23372 15.9629 6.47461C15.6191 5.70117 15.1322 5.04232 14.502 4.49805C13.8717 3.95378 13.1556 3.57422 12.3535 3.35938L12.375 3.1875C12.375 2.80078 12.2389 2.47852 11.9668 2.2207C11.709 1.94857 11.3867 1.8125 11 1.8125ZM10.6992 4.5625C10.7422 4.5625 10.8066 4.5625 10.8926 4.5625H11.1289C11.8594 4.59115 12.5326 4.80599 13.1484 5.20703C13.7643 5.59375 14.2441 6.11654 14.5879 6.77539C14.946 7.43424 15.125 8.13607 15.125 8.88086V14.875C15.125 15.0898 15.168 15.319 15.2539 15.5625H6.74609C6.83203 15.319 6.875 15.0898 6.875 14.875V8.6875C6.875 7.97135 7.03971 7.3125 7.36914 6.71094C7.71289 6.09505 8.17839 5.60091 8.76562 5.22852C9.35286 4.8418 9.9974 4.61979 10.6992 4.5625ZM11 16.9375C11.2005 16.9375 11.3652 17.002 11.4941 17.1309C11.623 17.2598 11.6875 17.4245 11.6875 17.625C11.6875 17.8112 11.623 17.9759 11.4941 18.1191C11.3652 18.248 11.2005 18.3125 11 18.3125C10.8138 18.3125 10.6491 18.248 10.5059 18.1191C10.377 17.9759 10.3125 17.8112 10.3125 17.625C10.3125 17.4245 10.377 17.2598 10.5059 17.1309C10.6491 17.002 10.8138 16.9375 11 16.9375Z" fill="#778CA2"/>
<path fill-rule="evenodd" clip-rule="evenodd" d="M17 10C19.2091 10 21 8.20914 21 6C21 3.79086 19.2091 2 17 2C14.7909 2 13 3.79086 13 6C13 8.20914 14.7909 10 17 10Z" fill="#59BDEF" stroke="white"/>
</svg>
