<svg width="18" height="19" viewBox="0 0 18 19" fill="none" xmlns="http://www.w3.org/2000/svg">
<path d="M9 0.8125C7.38151 0.8125 5.8776 1.2207 4.48828 2.03711C3.14193 2.82487 2.07487 3.89193 1.28711 5.23828C0.470703 6.6276 0.0625 8.13151 0.0625 9.75C0.0625 11.3685 0.470703 12.8724 1.28711 14.2617C2.07487 15.6081 3.14193 16.6751 4.48828 17.4629C5.8776 18.2793 7.38151 18.6875 9 18.6875C10.6185 18.6875 12.1224 18.2793 13.5117 17.4629C14.8581 16.6751 15.9251 15.6081 16.7129 14.2617C17.5293 12.8724 17.9375 11.3685 17.9375 9.75C17.9375 8.13151 17.5293 6.6276 16.7129 5.23828C15.9251 3.89193 14.8581 2.82487 13.5117 2.03711C12.1224 1.2207 10.6185 0.8125 9 0.8125ZM9 2.1875C10.375 2.1875 11.6497 2.53125 12.8242 3.21875C13.9557 3.89193 14.8581 4.79427 15.5312 5.92578C16.2188 7.10026 16.5625 8.375 16.5625 9.75C16.5625 11.125 16.2188 12.3997 15.5312 13.5742C14.8581 14.7057 13.9557 15.6081 12.8242 16.2812C11.6497 16.9688 10.375 17.3125 9 17.3125C7.625 17.3125 6.35026 16.9688 5.17578 16.2812C4.04427 15.6081 3.14193 14.7057 2.46875 13.5742C1.78125 12.3997 1.4375 11.125 1.4375 9.75C1.4375 8.375 1.78125 7.10026 2.46875 5.92578C3.14193 4.79427 4.04427 3.89193 5.17578 3.21875C6.35026 2.53125 7.625 2.1875 9 2.1875ZM9 4.25C8.38411 4.25 7.8112 4.40755 7.28125 4.72266C6.7513 5.02344 6.32878 5.4388 6.01367 5.96875C5.71289 6.4987 5.5625 7.07161 5.5625 7.6875C5.5625 8.1888 5.66992 8.66862 5.88477 9.12695C6.09961 9.57096 6.40039 9.95768 6.78711 10.2871C5.99935 10.6882 5.36914 11.2754 4.89648 12.0488C4.42383 12.8079 4.1875 13.6458 4.1875 14.5625H5.5625C5.5625 13.9323 5.71289 13.3594 6.01367 12.8438C6.32878 12.3138 6.74414 11.8984 7.25977 11.5977C7.78971 11.2826 8.36979 11.125 9 11.125C9.63021 11.125 10.2031 11.2826 10.7188 11.5977C11.2487 11.8984 11.6641 12.3138 11.9648 12.8438C12.2799 13.3594 12.4375 13.9323 12.4375 14.5625H13.8125C13.8125 13.6458 13.5762 12.8079 13.1035 12.0488C12.6309 11.2754 12.0007 10.6882 11.2129 10.2871C11.5996 9.95768 11.9004 9.57096 12.1152 9.12695C12.3301 8.66862 12.4375 8.1888 12.4375 7.6875C12.4375 7.07161 12.2799 6.4987 11.9648 5.96875C11.6641 5.4388 11.2487 5.02344 10.7188 4.72266C10.1888 4.40755 9.61589 4.25 9 4.25ZM9 5.625C9.57292 5.625 10.0599 5.82552 10.4609 6.22656C10.862 6.6276 11.0625 7.11458 11.0625 7.6875C11.0625 8.26042 10.862 8.7474 10.4609 9.14844C10.0599 9.54948 9.57292 9.75 9 9.75C8.42708 9.75 7.9401 9.54948 7.53906 9.14844C7.13802 8.7474 6.9375 8.26042 6.9375 7.6875C6.9375 7.11458 7.13802 6.6276 7.53906 6.22656C7.9401 5.82552 8.42708 5.625 9 5.625Z" fill="#778CA2"/>
</svg>
