<svg width="20" height="15" viewBox="0 0 20 15" fill="none" xmlns="http://www.w3.org/2000/svg">
<path d="M2.4375 0.875C1.87891 0.875 1.39193 1.08268 0.976562 1.49805C0.575521 1.89909 0.375 2.37891 0.375 2.9375V12.5625C0.375 13.1211 0.575521 13.6081 0.976562 14.0234C1.39193 14.4245 1.87891 14.625 2.4375 14.625H17.5625C18.1211 14.625 18.6009 14.4245 19.002 14.0234C19.4173 13.6081 19.625 13.1211 19.625 12.5625V2.9375C19.625 2.37891 19.4173 1.89909 19.002 1.49805C18.6009 1.08268 18.1211 0.875 17.5625 0.875H2.4375ZM2.4375 2.25H17.5625C17.763 2.25 17.9277 2.31445 18.0566 2.44336C18.1855 2.57227 18.25 2.73698 18.25 2.9375V4.3125H2.4375V5.6875H18.25V12.5625C18.25 12.763 18.1855 12.9277 18.0566 13.0566C17.9277 13.1855 17.763 13.25 17.5625 13.25H2.4375C2.23698 13.25 2.07227 13.1855 1.94336 13.0566C1.81445 12.9277 1.75 12.763 1.75 12.5625V2.9375C1.75 2.73698 1.81445 2.57227 1.94336 2.44336C2.07227 2.31445 2.23698 2.25 2.4375 2.25Z" fill="#778CA2"/>
</svg>
