<svg width="18" height="17" viewBox="0 0 18 17" fill="none" xmlns="http://www.w3.org/2000/svg">
<path d="M9 0.8125C8.36979 0.8125 7.8112 1.00586 7.32422 1.39258C6.83724 1.7793 6.51497 2.27344 6.35742 2.875H0.0625V16.625H17.9375V2.875H11.6426C11.485 2.27344 11.1628 1.7793 10.6758 1.39258C10.1888 1.00586 9.63021 0.8125 9 0.8125ZM9 2.1875C9.27214 2.1875 9.50846 2.25195 9.70898 2.38086C9.92383 2.49544 10.0885 2.66016 10.2031 2.875H7.79688C7.91146 2.66016 8.06901 2.49544 8.26953 2.38086C8.48438 2.25195 8.72786 2.1875 9 2.1875ZM1.4375 4.25H16.5625V10.4375H1.4375V4.25ZM9 8.375C8.8138 8.375 8.64909 8.44661 8.50586 8.58984C8.37695 8.71875 8.3125 8.8763 8.3125 9.0625C8.3125 9.2487 8.37695 9.41341 8.50586 9.55664C8.64909 9.68555 8.8138 9.75 9 9.75C9.1862 9.75 9.34375 9.68555 9.47266 9.55664C9.61589 9.41341 9.6875 9.2487 9.6875 9.0625C9.6875 8.8763 9.61589 8.71875 9.47266 8.58984C9.34375 8.44661 9.1862 8.375 9 8.375ZM1.4375 11.8125H16.5625V15.25H1.4375V11.8125Z" fill="#778CA2"/>
</svg>
