<svg width="172" height="32" viewBox="0 0 172 32" fill="none" xmlns="http://www.w3.org/2000/svg">
<path d="M53.952 16.084C54.712 16.3247 55.3073 16.73 55.738 17.3C56.1687 17.8573 56.384 18.5477 56.384 19.371C56.384 20.5363 55.928 21.4357 55.016 22.069C54.1167 22.6897 52.7993 23 51.064 23H44.186V9.7H50.684C52.3053 9.7 53.5467 10.0103 54.408 10.631C55.282 11.2517 55.719 12.094 55.719 13.158C55.719 13.804 55.5607 14.3803 55.244 14.887C54.94 15.3937 54.5093 15.7927 53.952 16.084ZM47.245 12.018V15.153H50.304C51.064 15.153 51.6403 15.02 52.033 14.754C52.4257 14.488 52.622 14.0953 52.622 13.576C52.622 13.0567 52.4257 12.6703 52.033 12.417C51.6403 12.151 51.064 12.018 50.304 12.018H47.245ZM50.836 20.682C51.6467 20.682 52.2547 20.549 52.66 20.283C53.078 20.017 53.287 19.6053 53.287 19.048C53.287 17.946 52.47 17.395 50.836 17.395H47.245V20.682H50.836ZM68.5183 17.927C68.5183 17.965 68.4993 18.231 68.4613 18.725H60.7283C60.8677 19.3583 61.197 19.8587 61.7163 20.226C62.2357 20.5933 62.8817 20.777 63.6543 20.777C64.1863 20.777 64.655 20.701 65.0603 20.549C65.4783 20.3843 65.8647 20.131 66.2193 19.789L67.7963 21.499C66.8337 22.601 65.4277 23.152 63.5783 23.152C62.4257 23.152 61.406 22.9303 60.5193 22.487C59.6327 22.031 58.9487 21.404 58.4673 20.606C57.986 19.808 57.7453 18.9023 57.7453 17.889C57.7453 16.8883 57.9797 15.989 58.4483 15.191C58.9297 14.3803 59.582 13.7533 60.4053 13.31C61.2413 12.854 62.1723 12.626 63.1983 12.626C64.199 12.626 65.1047 12.8413 65.9153 13.272C66.726 13.7027 67.3593 14.3233 67.8153 15.134C68.284 15.932 68.5183 16.863 68.5183 17.927ZM63.2173 14.868C62.546 14.868 61.9823 15.058 61.5263 15.438C61.0703 15.818 60.7917 16.3373 60.6903 16.996H65.7253C65.624 16.35 65.3453 15.837 64.8893 15.457C64.4333 15.0643 63.876 14.868 63.2173 14.868ZM77.0847 22.506C76.7933 22.7213 76.4323 22.886 76.0017 23C75.5837 23.1013 75.1403 23.152 74.6717 23.152C73.4557 23.152 72.512 22.8417 71.8407 22.221C71.182 21.6003 70.8527 20.6883 70.8527 19.485V15.286H69.2757V13.006H70.8527V10.517H73.8167V13.006H76.3627V15.286H73.8167V19.447C73.8167 19.8777 73.9243 20.2133 74.1397 20.454C74.3677 20.682 74.6843 20.796 75.0897 20.796C75.5583 20.796 75.9573 20.6693 76.2867 20.416L77.0847 22.506ZM82.8715 12.626C84.4548 12.626 85.6708 13.006 86.5195 13.766C87.3682 14.5133 87.7925 15.647 87.7925 17.167V23H85.0185V21.727C84.4612 22.677 83.4225 23.152 81.9025 23.152C81.1172 23.152 80.4332 23.019 79.8505 22.753C79.2805 22.487 78.8435 22.1197 78.5395 21.651C78.2355 21.1823 78.0835 20.6503 78.0835 20.055C78.0835 19.105 78.4382 18.3577 79.1475 17.813C79.8695 17.2683 80.9778 16.996 82.4725 16.996H84.8285C84.8285 16.35 84.6322 15.856 84.2395 15.514C83.8468 15.1593 83.2578 14.982 82.4725 14.982C81.9278 14.982 81.3895 15.0707 80.8575 15.248C80.3382 15.4127 79.8948 15.6407 79.5275 15.932L78.4635 13.861C79.0208 13.4683 79.6858 13.1643 80.4585 12.949C81.2438 12.7337 82.0482 12.626 82.8715 12.626ZM82.6435 21.157C83.1502 21.157 83.5998 21.043 83.9925 20.815C84.3852 20.5743 84.6638 20.226 84.8285 19.77V18.725H82.7955C81.5795 18.725 80.9715 19.124 80.9715 19.922C80.9715 20.302 81.1172 20.606 81.4085 20.834C81.7125 21.0493 82.1242 21.157 82.6435 21.157ZM93.4391 12.208H89.1831V9.7H100.773V12.208H96.5171V23H93.4391V12.208ZM104.829 14.127C105.183 13.633 105.658 13.2593 106.254 13.006C106.862 12.7527 107.558 12.626 108.344 12.626V15.362C108.014 15.3367 107.793 15.324 107.679 15.324C106.83 15.324 106.165 15.5647 105.684 16.046C105.202 16.5147 104.962 17.224 104.962 18.174V23H101.998V12.778H104.829V14.127ZM114.173 12.626C115.757 12.626 116.973 13.006 117.821 13.766C118.67 14.5133 119.094 15.647 119.094 17.167V23H116.32V21.727C115.763 22.677 114.724 23.152 113.204 23.152C112.419 23.152 111.735 23.019 111.152 22.753C110.582 22.487 110.145 22.1197 109.841 21.651C109.537 21.1823 109.385 20.6503 109.385 20.055C109.385 19.105 109.74 18.3577 110.449 17.813C111.171 17.2683 112.28 16.996 113.774 16.996H116.13C116.13 16.35 115.934 15.856 115.541 15.514C115.149 15.1593 114.56 14.982 113.774 14.982C113.23 14.982 112.691 15.0707 112.159 15.248C111.64 15.4127 111.197 15.6407 110.829 15.932L109.765 13.861C110.323 13.4683 110.988 13.1643 111.76 12.949C112.546 12.7337 113.35 12.626 114.173 12.626ZM113.945 21.157C114.452 21.157 114.902 21.043 115.294 20.815C115.687 20.5743 115.966 20.226 116.13 19.77V18.725H114.097C112.881 18.725 112.273 19.124 112.273 19.922C112.273 20.302 112.419 20.606 112.71 20.834C113.014 21.0493 113.426 21.157 113.945 21.157ZM127.99 12.626C129.256 12.626 130.276 13.006 131.049 13.766C131.834 14.526 132.227 15.6533 132.227 17.148V23H129.263V17.604C129.263 16.7933 129.085 16.1917 128.731 15.799C128.376 15.3937 127.863 15.191 127.192 15.191C126.444 15.191 125.849 15.4253 125.406 15.894C124.962 16.35 124.741 17.034 124.741 17.946V23H121.777V12.778H124.608V13.975C125 13.5443 125.488 13.215 126.071 12.987C126.653 12.7463 127.293 12.626 127.99 12.626ZM138.353 23.152C137.504 23.152 136.674 23.0507 135.864 22.848C135.053 22.6327 134.407 22.3667 133.926 22.05L134.914 19.922C135.37 20.2133 135.921 20.454 136.567 20.644C137.213 20.8213 137.846 20.91 138.467 20.91C139.721 20.91 140.348 20.5997 140.348 19.979C140.348 19.6877 140.177 19.4787 139.835 19.352C139.493 19.2253 138.967 19.1177 138.258 19.029C137.422 18.9023 136.731 18.7567 136.187 18.592C135.642 18.4273 135.167 18.136 134.762 17.718C134.369 17.3 134.173 16.7047 134.173 15.932C134.173 15.286 134.356 14.716 134.724 14.222C135.104 13.7153 135.648 13.3227 136.358 13.044C137.08 12.7653 137.928 12.626 138.904 12.626C139.626 12.626 140.341 12.7083 141.051 12.873C141.773 13.025 142.368 13.2403 142.837 13.519L141.849 15.628C140.949 15.1213 139.968 14.868 138.904 14.868C138.27 14.868 137.795 14.9567 137.479 15.134C137.162 15.3113 137.004 15.5393 137.004 15.818C137.004 16.1347 137.175 16.3563 137.517 16.483C137.859 16.6097 138.403 16.73 139.151 16.844C139.987 16.9833 140.671 17.1353 141.203 17.3C141.735 17.452 142.197 17.737 142.59 18.155C142.982 18.573 143.179 19.1557 143.179 19.903C143.179 20.5363 142.989 21.1 142.609 21.594C142.229 22.088 141.671 22.4743 140.937 22.753C140.215 23.019 139.353 23.152 138.353 23.152ZM148.256 13.006H150.878V15.286H148.332V23H145.368V15.286H143.791V13.006H145.368V12.55C145.368 11.3847 145.71 10.46 146.394 9.776C147.091 9.092 148.066 8.75 149.32 8.75C149.764 8.75 150.182 8.80067 150.574 8.902C150.98 8.99067 151.315 9.12367 151.581 9.301L150.802 11.448C150.46 11.2073 150.061 11.087 149.605 11.087C148.706 11.087 148.256 11.581 148.256 12.569V13.006ZM162.238 17.927C162.238 17.965 162.219 18.231 162.181 18.725H154.448C154.587 19.3583 154.917 19.8587 155.436 20.226C155.955 20.5933 156.601 20.777 157.374 20.777C157.906 20.777 158.375 20.701 158.78 20.549C159.198 20.3843 159.584 20.131 159.939 19.789L161.516 21.499C160.553 22.601 159.147 23.152 157.298 23.152C156.145 23.152 155.126 22.9303 154.239 22.487C153.352 22.031 152.668 21.404 152.187 20.606C151.706 19.808 151.465 18.9023 151.465 17.889C151.465 16.8883 151.699 15.989 152.168 15.191C152.649 14.3803 153.302 13.7533 154.125 13.31C154.961 12.854 155.892 12.626 156.918 12.626C157.919 12.626 158.824 12.8413 159.635 13.272C160.446 13.7027 161.079 14.3233 161.535 15.134C162.004 15.932 162.238 16.863 162.238 17.927ZM156.937 14.868C156.266 14.868 155.702 15.058 155.246 15.438C154.79 15.818 154.511 16.3373 154.41 16.996H159.445C159.344 16.35 159.065 15.837 158.609 15.457C158.153 15.0643 157.596 14.868 156.937 14.868ZM167.042 14.127C167.397 13.633 167.872 13.2593 168.467 13.006C169.075 12.7527 169.772 12.626 170.557 12.626V15.362C170.228 15.3367 170.006 15.324 169.892 15.324C169.044 15.324 168.379 15.5647 167.897 16.046C167.416 16.5147 167.175 17.224 167.175 18.174V23H164.211V12.778H167.042V14.127Z" fill="#292A34"/>
<path d="M0.993375 12.8229L5.78981 7.64527C7.11431 6.21549 9.26175 6.21549 10.5862 7.64527L12.9443 10.1908L10.6235 12.6961L9.43988 11.4184C8.74851 10.6721 7.62756 10.6721 6.93618 11.4184L4.48872 14.0604C3.79734 14.8068 3.79734 16.0168 4.48872 16.7631L6.93618 19.4051C7.62756 20.1514 8.74851 20.1514 9.43988 19.4051L11.8873 16.7631C11.9197 16.7282 11.9505 16.6923 11.9798 16.6555L15.4768 12.9286C16.7064 14.3647 16.675 16.6055 15.3827 18.0006L10.5862 23.1783C9.26175 24.6081 7.11431 24.6081 5.78981 23.1783L0.993375 18.0006C-0.331125 16.5708 -0.331125 14.2527 0.993375 12.8229Z" fill="#C4C4C4"/>
<path d="M0.993375 12.8229L5.78981 7.64527C7.11431 6.21549 9.26175 6.21549 10.5862 7.64527L12.9443 10.1908L10.6235 12.6961L9.43988 11.4184C8.74851 10.6721 7.62756 10.6721 6.93618 11.4184L4.48872 14.0604C3.79734 14.8068 3.79734 16.0168 4.48872 16.7631L6.93618 19.4051C7.62756 20.1514 8.74851 20.1514 9.43988 19.4051L11.8873 16.7631C11.9197 16.7282 11.9505 16.6923 11.9798 16.6555L15.4768 12.9286C16.7064 14.3647 16.675 16.6055 15.3827 18.0006L10.5862 23.1783C9.26175 24.6081 7.11431 24.6081 5.78981 23.1783L0.993375 18.0006C-0.331125 16.5708 -0.331125 14.2527 0.993375 12.8229Z" fill="url(#paint0_linear)"/>
<path d="M15.5532 12.8229L20.3497 7.64527C21.6742 6.21549 23.8216 6.21549 25.1461 7.64527L29.9425 12.8229C31.267 14.2527 31.267 16.5708 29.9425 18.0006L25.1461 23.1783C23.8216 24.6081 21.6742 24.6081 20.3497 23.1783L18.1501 20.8039L20.471 18.2986L21.496 19.4051C22.1874 20.1514 23.3084 20.1514 23.9997 19.4051L26.4472 16.7631C27.1386 16.0168 27.1386 14.8068 26.4472 14.0604L23.9997 11.4184C23.3084 10.6721 22.1874 10.6721 21.496 11.4184L19.0486 14.0604C19.0078 14.1044 18.9695 14.15 18.9335 14.1971L15.4687 17.9061C14.2294 16.4705 14.2575 14.2216 15.5532 12.8229Z" fill="#C4C4C4"/>
<path d="M15.5532 12.8229L20.3497 7.64527C21.6742 6.21549 23.8216 6.21549 25.1461 7.64527L29.9425 12.8229C31.267 14.2527 31.267 16.5708 29.9425 18.0006L25.1461 23.1783C23.8216 24.6081 21.6742 24.6081 20.3497 23.1783L18.1501 20.8039L20.471 18.2986L21.496 19.4051C22.1874 20.1514 23.3084 20.1514 23.9997 19.4051L26.4472 16.7631C27.1386 16.0168 27.1386 14.8068 26.4472 14.0604L23.9997 11.4184C23.3084 10.6721 22.1874 10.6721 21.496 11.4184L19.0486 14.0604C19.0078 14.1044 18.9695 14.15 18.9335 14.1971L15.4687 17.9061C14.2294 16.4705 14.2575 14.2216 15.5532 12.8229Z" fill="url(#paint1_linear)"/>
<path d="M13.3794 11.9522C13.4959 12.637 12.8959 13.2291 12.2126 13.1034L9.58972 12.621C9.20201 12.5497 9.04547 12.0786 9.31338 11.7894L12.0355 8.85098C12.3173 8.54677 12.8256 8.69808 12.8952 9.10689L13.3794 11.9522Z" fill="#C4C4C4"/>
<path d="M13.3794 11.9522C13.4959 12.637 12.8959 13.2291 12.2126 13.1034L9.58972 12.621C9.20201 12.5497 9.04547 12.0786 9.31338 11.7894L12.0355 8.85098C12.3173 8.54677 12.8256 8.69808 12.8952 9.10689L13.3794 11.9522Z" fill="url(#paint2_linear)"/>
<path d="M17.7827 19.127C17.6662 18.4421 18.2663 17.85 18.9495 17.9757L21.5724 18.4582C21.9601 18.5295 22.1167 19.0005 21.8487 19.2897L19.1266 22.2282C18.8448 22.5324 18.3365 22.3811 18.2669 21.9723L17.7827 19.127Z" fill="#C4C4C4"/>
<path d="M17.7827 19.127C17.6662 18.4421 18.2663 17.85 18.9495 17.9757L21.5724 18.4582C21.9601 18.5295 22.1167 19.0005 21.8487 19.2897L19.1266 22.2282C18.8448 22.5324 18.3365 22.3811 18.2669 21.9723L17.7827 19.127Z" fill="url(#paint3_linear)"/>
<defs>
<linearGradient id="paint0_linear" x1="24.8698" y1="13.5875" x2="-4.31573" y2="5.90173" gradientUnits="userSpaceOnUse">
<stop stop-color="#36D1DC"/>
<stop offset="1" stop-color="#5B86E5"/>
</linearGradient>
<linearGradient id="paint1_linear" x1="24.8698" y1="13.5875" x2="-4.31573" y2="5.90173" gradientUnits="userSpaceOnUse">
<stop stop-color="#36D1DC"/>
<stop offset="1" stop-color="#5B86E5"/>
</linearGradient>
<linearGradient id="paint2_linear" x1="24.8698" y1="13.5875" x2="-4.31573" y2="5.90173" gradientUnits="userSpaceOnUse">
<stop stop-color="#36D1DC"/>
<stop offset="1" stop-color="#5B86E5"/>
</linearGradient>
<linearGradient id="paint3_linear" x1="24.8698" y1="13.5875" x2="-4.31573" y2="5.90173" gradientUnits="userSpaceOnUse">
<stop stop-color="#36D1DC"/>
<stop offset="1" stop-color="#5B86E5"/>
</linearGradient>
</defs>
</svg>
