<?xml version="1.0" encoding="utf-8"?>
<!-- Generator: Adobe Illustrator 23.0.3, SVG Export Plug-In . SVG Version: 6.00 Build 0)  -->
<svg version="1.1" id="Слой_1" xmlns="http://www.w3.org/2000/svg" xmlns:xlink="http://www.w3.org/1999/xlink" x="0px" y="0px"
	 viewBox="0 0 512 511" style="enable-background:new 0 0 512 511;" xml:space="preserve">
<style type="text/css">
	.st0{fill:#FFFFFF;}
</style>
<path class="st0" d="M485.3,354.8v-18.9c0-1.1-0.1-2.3-0.2-3.4c1.9-1.1,3.6-2.4,5.2-3.7c7-6,10.6-14,10.6-23
	c0-7.7-2.8-15.1-7.7-20.7c3.8-4.6,6-10.4,5.9-16.5c-0.2-10.8-7.3-19.9-17-23.3c2-4.2,3.1-8.9,3.1-13.8v-5.5
	c14.4-1,25.8-13,25.8-27.6c0-2.1-0.4-52.3-39.2-100c-19.7-24.2-45.7-43.4-77.4-57C356,24.9,309.1,16.5,255,16.5
	c-68.2,0-124.5,13.2-167.4,39.2c-3.6,2.2-4.7,6.8-2.5,10.3c2.2,3.5,6.8,4.7,10.3,2.5c40.5-24.5,94.2-37,159.6-37
	c52.1,0,97,8,133.5,23.6c29.4,12.6,53.6,30.4,71.7,52.7c35.4,43.6,35.8,88.6,35.8,90.5c0,7-5.7,12.7-12.7,12.7H26.7
	c-7,0-12.7-5.7-12.7-12.7c0-1.9,0.2-19.1,8.8-42.8c9.4-25.9,24.7-48.5,45.4-67c3.1-2.8,3.4-7.5,0.6-10.6c-2.8-3.1-7.5-3.4-10.6-0.6
	C-0.3,129.7-1,195.6-1,198.3c0,14.6,11.4,26.6,25.7,27.6v5.5c0,5,1.1,9.7,3.2,14c-3.7,1.3-7.1,3.4-9.8,6.3
	c-4.8,4.9-7.3,11.2-7.2,17.9c0.1,5.8,2.2,11.2,5.7,15.5c-4.9,5.7-7.7,13-7.7,20.7c0,9,3.7,16.9,10.6,23c1.7,1.4,3.5,2.7,5.5,3.9
	c-0.1,1.1-0.2,2.1-0.2,3.2v18.9c-14.4,1-25.8,13-25.8,27.6c0,62,50.4,112.4,112.4,112.4h287.2c62,0,112.4-50.4,112.4-112.4
	C511,367.8,499.7,355.8,485.3,354.8z M480.5,317.4c-6.9,6-19.6,8.5-33,6.5c-9.5-1.4-14.6-4.1-19.9-6.9c-1.2-0.6-2.5-1.3-3.7-1.9
	l17.1-17.4c2.1-2.2,5.1-3.4,8.1-3.4h24.4c2.3,0,4.6-0.3,6.9-0.9c3.5,3.1,5.6,7.7,5.6,12.5C485.9,310.4,484.1,314.3,480.5,317.4z
	 M39.8,226h430.5v5.4c0,5.8-2.9,11-7.4,14.1c-0.1,0.1-0.3,0.2-0.4,0.3c-0.3,0.2-0.6,0.4-1,0.6c-0.1,0.1-0.2,0.1-0.3,0.2
	c-0.4,0.2-0.9,0.4-1.3,0.6c0,0-0.1,0-0.1,0c-0.5,0.2-1,0.4-1.5,0.6c-0.1,0-0.1,0-0.2,0.1c-0.4,0.1-0.9,0.2-1.3,0.3
	c-0.1,0-0.3,0.1-0.4,0.1c-0.4,0.1-0.8,0.1-1.2,0.2c-0.1,0-0.3,0-0.4,0.1c-0.5,0.1-1.1,0.1-1.6,0.1H56.9c-9.4,0-17.1-7.7-17.1-17.1
	V226z M28.8,262.2c2-2.1,4.9-3.3,7.7-3.3h3.6c4.9,3,10.6,4.7,16.7,4.7h396.2c0.7,0,1.3,0,2-0.1c0.2,0,0.4,0,0.6,0
	c0.5,0,0.9-0.1,1.4-0.1c0.2,0,0.4-0.1,0.7-0.1c0.6-0.1,1.2-0.2,1.7-0.3c0.2-0.1,0.5-0.1,0.7-0.2c0.4-0.1,0.8-0.2,1.2-0.3
	c0.3-0.1,0.6-0.2,0.9-0.3c0.3-0.1,0.6-0.2,0.9-0.3c0.3-0.1,0.6-0.2,0.9-0.3c0.5-0.2,1-0.4,1.5-0.6c0.3-0.1,0.6-0.3,0.9-0.4
	c0.3-0.1,0.6-0.3,0.8-0.4c0.3-0.1,0.6-0.3,0.9-0.4c0.3-0.2,0.7-0.4,1-0.6c0.2-0.1,0.4-0.2,0.6-0.3h4.1c5.5,0,10.1,4.5,10.2,10
	c0.1,3.8-2.3,7.5-6,9.3h0c-1.5,0.7-3.1,1.1-4.7,1.1H449c-7,0-13.9,2.9-18.9,7.9l-30.4,31c-7.3,7.4-18.8,8.4-27.2,2.7
	c-0.2-0.1-0.4-0.3-0.5-0.4c-0.5-0.3-0.9-0.7-1.4-1.1c0,0,0,0,0,0l-39.4-33.8c-4.8-4.1-10.9-6.4-17.2-6.4H36.1c-1.5,0-3-0.4-4.5-1.1
	h0c-3.5-1.7-5.6-5.1-5.7-8.9C25.9,266.7,26.9,264.2,28.8,262.2z M23.9,305.8c0-4.8,2.1-9.3,5.5-12.4c2.2,0.6,4.4,0.9,6.6,0.9H314
	c2.7,0,5.4,1,7.4,2.7l31.2,26.7c-0.6,0-1.3,0-2,0c-9.9,0-14.4-2.7-20.1-6.1c-6.4-3.9-13.8-8.2-27.8-8.2c-14,0-21.3,4.4-27.8,8.2
	c-5.7,3.4-10.2,6.1-20.1,6.1s-14.4-2.7-20.1-6.1c-6.4-3.9-13.8-8.2-27.8-8.2c-14,0-21.3,4.4-27.8,8.2c-5.7,3.4-10.2,6.1-20.1,6.1
	s-14.4-2.7-20.1-6.1c-6.4-3.9-13.8-8.2-27.8-8.2c-14.8,0-22.1,3.8-29.1,7.5c-5.3,2.8-10.3,5.5-19.9,6.9c-13.5,2-26.1-0.5-33-6.5
	C25.7,314.3,23.9,310.4,23.9,305.8z M398.6,479.7H111.4c-53.7,0-97.4-43.7-97.4-97.4c0-7,5.7-12.7,12.7-12.7h336.7
	c4.1,0,7.5-3.4,7.5-7.5s-3.4-7.5-7.5-7.5H39.9v-16.4c4.3,0.9,8.8,1.4,13.5,1.4c3.6,0,7.4-0.3,11.1-0.8c12.1-1.8,18.8-5.3,24.7-8.5
	c6.1-3.2,10.9-5.8,22-5.8c9.9,0,14.4,2.7,20.1,6.1c6.4,3.9,13.8,8.2,27.8,8.2c14,0,21.3-4.4,27.8-8.2c5.7-3.4,10.2-6.1,20.1-6.1
	s14.4,2.7,20.1,6.1c6.4,3.9,13.8,8.2,27.8,8.2c14,0,21.3-4.4,27.8-8.2c5.7-3.4,10.2-6.1,20.1-6.1s14.4,2.7,20.1,6.1
	c6.4,3.9,13.8,8.2,27.8,8.2c6.7,0,12.3-1,17.7-3.1c5.1,2.5,10.6,3.8,16.2,3.8c9.5,0,18.9-3.6,26-10.8l2.1-2.1c2.8,1,5.3,2.3,8,3.7
	c5.9,3.1,12.6,6.7,24.7,8.5c3.8,0.6,7.5,0.8,11.1,0.8c4.9,0,9.5-0.5,13.9-1.4v16.5h-71.9c-4.1,0-7.5,3.4-7.5,7.5s3.4,7.5,7.5,7.5
	h84.9c7,0,12.7,5.7,12.7,12.7C496,436.1,452.3,479.7,398.6,479.7z"/>
</svg>
