<?xml version="1.0" encoding="utf-8"?>
<!-- Generator: Adobe Illustrator 23.0.3, SVG Export Plug-In . SVG Version: 6.00 Build 0)  -->
<svg version="1.1" id="Слой_1" xmlns="http://www.w3.org/2000/svg" xmlns:xlink="http://www.w3.org/1999/xlink" x="0px" y="0px"
	 viewBox="0 0 512 512" style="enable-background:new 0 0 512 512;" xml:space="preserve">
<style type="text/css">
	.st0{fill:#FFFFFF;}
</style>
<path class="st0" d="M493,262c-2.3-2.5-5.6-4-9-4h-14.1c-1.4-17.6-7.8-34.3-18.6-48.5c-2.5-3.3-7.2-3.9-10.5-1.4
	c-3.3,2.5-3.9,7.2-1.4,10.5c8.8,11.6,14.1,25.1,15.4,39.4h-14.2c-3.7-31.4-30.5-55.8-62.8-55.8c-14.2,0-28,4.9-39.1,13.6
	c-2.5-4-5.4-7.7-8.5-11.2c2.3-1.8,4.7-3.4,7.1-5c0,0,0.1,0,0.1,0c3-1.9,6.1-3.5,9.3-4.9c0.3-0.1,0.6-0.3,0.9-0.4
	c0.8-0.3,1.6-0.7,2.4-1c0.5-0.2,1.1-0.4,1.6-0.6c0.4-0.1,0.8-0.3,1.2-0.4c0.8-0.3,1.7-0.5,2.5-0.8c0.4-0.1,0.7-0.2,1.1-0.3
	c0.9-0.2,1.7-0.5,2.6-0.7c0.4-0.1,0.8-0.2,1.2-0.3c0.7-0.2,1.3-0.3,2-0.4c0.6-0.1,1.2-0.2,1.8-0.4c0.6-0.1,1.1-0.2,1.7-0.3
	c0.5-0.1,1-0.2,1.6-0.2c3.4-0.5,6.9-0.7,10.5-0.7c13.1,0,26,3.3,37.4,9.6c3.6,2,8.2,0.7,10.2-2.9c2-3.6,0.7-8.2-2.9-10.2
	c-11.9-6.6-25.2-10.5-38.9-11.3l88.7-122.7c2.2-3.1,3.1-6.8,2.5-10.6c-0.6-3.7-2.7-7-5.8-9.2c0,0,0,0,0,0L457.8,23
	c-3.1-2.2-6.9-3-10.6-2.3c-3.7,0.7-7,2.8-9.1,5.9l-109.9,161c-3.1,2-6,4.1-8.9,6.5c-0.1-0.1-0.2-0.2-0.3-0.3l82.8-167.6
	c1.7-3.4,1.9-7.3,0.7-10.8c-1.2-3.6-3.8-6.5-7.2-8.1l-12.3-5.9c-3.4-1.6-7.3-1.8-10.9-0.5s-6.4,3.9-8,7.4l-76.6,166.3
	c-4.6-18.5-14.8-35.3-29.4-47.9c-16.7-14.4-38.2-22.4-60.3-22.4c-22.1,0-43.5,7.9-60.2,22.4c-15.3,13.2-25.8,31-30,50.6
	c-35.6,10.8-62.2,42.6-65.3,80.9H28.1c-3.4,0-6.7,1.4-9,4c-2.3,2.5-3.4,5.9-3.1,9.3c4.8,48.1,25.9,137,112.6,193v23.8
	c0,13.1,10.7,23.8,23.8,23.8h207.2c13.1,0,23.8-10.7,23.8-23.8v-23.9c43.4-28.1,75.1-67.3,94.4-116.6c2.4-6.2,4.6-12.5,6.6-18.9
	c1.6-5.2,3.1-10.5,4.4-15.7c3.4-13.6,5.8-27.7,7.2-41.7C496.4,267.9,495.3,264.5,493,262z M450,35.8l9.6,6.8l-95.1,131.5
	c-0.4,0.1-0.9,0.1-1.3,0.2c-0.7,0.1-1.3,0.2-2,0.3c-0.6,0.1-1.1,0.2-1.7,0.3c-1,0.2-2,0.4-3,0.7c-0.5,0.1-1,0.2-1.4,0.4
	c-0.3,0.1-0.6,0.1-0.9,0.2L450,35.8z M377.8,217.3c24.1,0,44.1,17.7,47.7,40.8h-14.4c-3.4-15.2-17.1-26.6-33.3-26.6
	c-10.9,0-20.7,5.2-26.9,13.2c-1.2-5.2-2.9-10.3-5-15.2C354.6,221.6,366,217.3,377.8,217.3z M395.4,258h-35.2
	c2.9-6.8,9.7-11.6,17.6-11.6C385.7,246.4,392.5,251.2,395.4,258z M377.3,15.3l10.6,5.1l-81.4,164.9c-2-1.1-4-2.2-6-3.1L377.3,15.3z
	 M288.2,193.2c0.6,0.2,1.2,0.5,1.8,0.7c0.3,0.1,0.6,0.3,0.9,0.4c0.9,0.4,1.9,0.8,2.8,1.3c0.4,0.2,0.8,0.4,1.2,0.6
	c0.5,0.2,1,0.5,1.4,0.7c0.5,0.3,1,0.5,1.5,0.8c0.5,0.3,1,0.6,1.6,0.9c0.7,0.4,1.3,0.8,1.9,1.2c0.4,0.2,0.7,0.5,1.1,0.7
	c0.6,0.4,1.1,0.7,1.6,1.1c0.3,0.2,0.6,0.4,0.9,0.6c11.4,7.9,20.5,18.8,26.3,31.6c0,0.1,0.1,0.2,0.1,0.3c3.3,7.4,5.5,15.5,6.4,24
	c0,0,0,0.1,0,0.1h-14.2c-3.7-31.4-30.5-55.8-62.8-55.8c-17.4,0-33.6,7-45.4,19.2c-2.3-4.2-4.9-8.2-7.8-12.1
	c14.3-13.6,33.4-21.3,53.2-21.3C270.5,188.2,279.7,190,288.2,193.2z M260.9,231.4c-16.2,0-29.9,11.4-33.3,26.6h-1.2
	c0-0.1,0-0.1,0-0.2c-0.1-0.9-0.2-1.9-0.3-2.8c0-0.3-0.1-0.5-0.1-0.8c-0.1-1-0.3-2.1-0.4-3.1c0-0.2-0.1-0.5-0.1-0.7
	c-0.1-0.8-0.3-1.5-0.4-2.3c0,0,0-0.1,0-0.1c0-0.1,0-0.2-0.1-0.3c0-0.2-0.1-0.4-0.1-0.7c-0.2-1-0.4-2-0.7-3c-0.1-0.3-0.1-0.5-0.2-0.8
	c-0.1-0.5-0.3-1.1-0.4-1.6c0,0,0,0,0,0c-0.1-0.4-0.2-0.8-0.3-1.2c0-0.1-0.1-0.3-0.1-0.4c-0.1-0.5-0.3-1-0.5-1.5c0,0,0,0,0-0.1
	c-0.1-0.4-0.3-0.8-0.4-1.3c-0.1-0.2-0.1-0.3-0.1-0.5c9.1-12.3,23.4-19.6,38.8-19.6c24.1,0,44.1,17.7,47.7,40.8h-14.4
	C290.8,242.8,277.1,231.4,260.9,231.4z M278.5,258h-35.2c2.9-6.8,9.7-11.6,17.6-11.6C268.8,246.4,275.6,251.2,278.5,258z
	 M197.8,177.4c6.6,0,12.5,3.4,16,8.7c-5.8,3.4-11.3,7.5-16.3,12.2c-4.8-4.6-10.2-8.6-15.9-12C185.1,180.9,191.2,177.4,197.8,177.4z
	 M168.2,179.6c-4.4-1.8-9-3.2-13.7-4.2c8-16.3,24.8-27.1,43.4-27.1c18.6,0,35.3,10.8,43.3,27c-4.7,1-9.3,2.4-13.8,4.2
	c-6-10.4-17.2-17.1-29.6-17.1C185.4,162.4,174.2,169.2,168.2,179.6z M147.4,137.9c14-12.1,31.9-18.7,50.4-18.7
	c18.5,0,36.5,6.7,50.5,18.8c11.1,9.6,19.2,22.1,23.4,35.9c-3.6-0.4-7.2-0.6-10.9-0.6c-1.4,0-2.8,0-4.2,0.1
	c-9.4-23.8-32.8-40-58.8-40c-26,0-49.4,16.2-58.8,40c-1.6-0.1-3.1-0.1-4.7-0.1c-3.5,0-7,0.2-10.4,0.6
	C128.2,160,136.3,147.5,147.4,137.9z M134.3,188.2c30.6,0,57.1,17.9,69.7,43.8c0.1,0.2,0.2,0.4,0.3,0.6c0.4,0.9,0.8,1.7,1.2,2.6
	c0.2,0.4,0.4,0.9,0.5,1.3c0.3,0.7,0.5,1.3,0.8,2c0.2,0.6,0.4,1.1,0.6,1.7c0.2,0.6,0.4,1.1,0.6,1.7c0.2,0.6,0.4,1.2,0.6,1.9
	c0.2,0.5,0.3,1.1,0.4,1.6c0.2,0.7,0.3,1.3,0.5,2c0.1,0.5,0.2,1,0.4,1.6c0.1,0.7,0.3,1.3,0.4,2c0.1,0.5,0.2,1.1,0.3,1.6
	c0.1,0.6,0.2,1.3,0.3,2c0.1,0.6,0.2,1.2,0.2,1.8c0.1,0.6,0.1,1.2,0.2,1.8h-14.2c-3.7-31.4-30.5-55.8-62.8-55.8S75.2,226.7,71.5,258
	H57.3C61.1,218.9,94.2,188.2,134.3,188.2z M134.3,231.4c-16.3,0-29.9,11.4-33.3,26.6H86.6c3.6-23.1,23.6-40.8,47.7-40.8
	c24.1,0,44.1,17.7,47.7,40.8h-14.4C164.2,242.8,150.5,231.4,134.3,231.4z M151.9,258h-35.2c2.9-6.8,9.7-11.6,17.6-11.6
	C142.2,246.4,149,251.2,151.9,258z M474.3,309.4c-1.2,5-2.6,10-4.1,14.9c-1.9,6.1-4,12.1-6.2,17.9c-18.3,46.9-48.5,84-89.9,110.3
	c0,0-0.1,0.1-0.3,0.1c-0.1,0-0.3,0.1-0.4,0.1H195.5c-4.1,0-7.5,3.4-7.5,7.5s3.4,7.5,7.5,7.5h173v20.4c0,4.9-4,8.8-8.8,8.8H152.5
	c-4.9,0-8.8-4-8.8-8.8v-20.4h16.9c4.1,0,7.5-3.4,7.5-7.5s-3.4-7.5-7.5-7.5h-21.9c-0.1,0-0.2,0-0.4-0.1c-0.1,0-0.2-0.1-0.3-0.1
	C57.4,401.2,36.5,319.4,31.3,273h449.4C479.4,285.3,477.2,297.5,474.3,309.4z"/>
</svg>
