<?xml version="1.0" encoding="utf-8"?>
<!-- Generator: Adobe Illustrator 23.0.3, SVG Export Plug-In . SVG Version: 6.00 Build 0)  -->
<svg version="1.1" id="Слой_1" xmlns="http://www.w3.org/2000/svg" xmlns:xlink="http://www.w3.org/1999/xlink" x="0px" y="0px"
	 viewBox="0 0 512 512" style="enable-background:new 0 0 512 512;" xml:space="preserve">
<style type="text/css">
	.st0{fill:#FFFFFF;}
</style>
<path class="st0" d="M437,75C392.2,30.2,333.7,4,271,0.4c-0.3,0-0.7,0-1-0.1c-1.1-0.1-2.1-0.1-3.2-0.1c-1,0-1.9-0.1-2.9-0.1
	c-0.8,0-1.6,0-2.4-0.1C259.7,0,257.8,0,256,0c0,0,0,0,0,0c0,0-0.1,0-0.1,0C218.2,0,182,8,148.1,23.8c-3.8,1.7-5.4,6.2-3.6,10
	c1.7,3.8,6.2,5.4,10,3.6c20.8-9.7,42.6-16.2,65.1-19.6c0.4,4.9,2.7,9.5,6.4,12.9l7.8,6.9c3.7,3.2,8.3,4.8,12.9,4.8
	c4.9,0,9.7-1.8,13.5-5.4l15.8-15.2c1.7-1.6,3-3.5,4-5.6c55.3,5.4,106.7,29.6,146.5,69.4c7.4,7.4,14.2,15.2,20.5,23.3
	c-6.2,4-10.7,11.6-13,22.3c-1.3,6,0.8,12.2,5.4,16.3l6.3,5.6c3.2,2.9,7.3,4.3,11.3,4.3c4.3,0,8.6-1.6,11.9-4.8l3.4-3.3
	c16.2,32.7,24.7,69,24.7,106.6c0,64.4-25.1,124.9-70.6,170.4S320.4,497,256,497s-124.9-25.1-170.4-70.6S15,320.4,15,256
	c0-22.5,3.1-44.6,9-65.6c1.1,0.3,2.3,0.4,3.5,0.5c0.4,0,0.7,0,1.1,0c7.9,0,16.2-3.3,24.7-9.7c3.9-3,6.1-7.1,6.2-11.8
	c0.2-7.7-5.1-16.6-16.2-27C62.3,107,90,76.4,124.8,53.8c3.5-2.3,4.5-6.9,2.2-10.4c-2.3-3.5-6.9-4.5-10.4-2.2C43.6,88.7,0,169,0,256
	c0,68.4,26.6,132.7,75,181s112.6,75,181,75s132.7-26.6,181-75s75-112.6,75-181S485.4,123.3,437,75z M249.7,26.2
	c-1.6,1.6-4.2,1.6-5.9,0.1l-7.8-6.9c-1-0.9-1.5-2.1-1.5-3.4c3.4-0.3,6.9-0.5,10.3-0.7c0.6,0,1.2-0.1,1.9-0.1c1.2,0,2.4-0.1,3.5-0.1
	c1.9,0,3.9-0.1,5.8-0.1c1.7,0,3.5,0,5.2,0.1L249.7,26.2z M458.5,141.9c-0.8,0.8-2,0.8-2.8,0.1l-6.3-5.6c-0.6-0.5-0.8-1.3-0.7-2
	c1.8-8.6,4.7-11.9,7.2-13c3.2,4.7,6.2,9.5,9,14.4L458.5,141.9z M36.5,156.6c8.3,8.6,8,12.3,8.1,12.3c0,0-0.1,0.1-0.4,0.3
	c-5.6,4.3-11,6.6-15.5,6.6C31.1,169.3,33.7,162.9,36.5,156.6z"/>
<path class="st0" d="M245.8,189.8c-2.2,0.3-4.4,0.8-6.5,1.3c-1.1,0.3-2.1,0.6-3.2,0.9c-27.2,8.5-47,33.9-47,63.9
	c0,36.9,30,66.9,66.9,66.9s66.9-30,66.9-66.9c0-30-19.8-55.4-47-63.9c-1-0.3-2.1-0.6-3.2-0.9c-2.1-0.6-4.3-1-6.5-1.3
	c-3.3-0.5-6.7-0.8-10.2-0.8C252.5,189.1,249.1,189.3,245.8,189.8z M307.9,256c0,28.6-23.3,51.9-51.9,51.9s-51.9-23.3-51.9-51.9
	s23.3-51.9,51.9-51.9S307.9,227.4,307.9,256z"/>
<path class="st0" d="M418.5,345.7l3.1,2.8c1.4,1.2,3.2,1.9,5,1.9c0.5,0,1,0,1.5-0.1c0.6-0.1,1.1-0.2,1.5-0.2l0.8,0
	c6.2-0.2,12.4-1.3,18.3-3.1c1.1-0.3,2.2-1,3-1.8l6.3-6.1c6-5.7,6.7-15,1.8-21.4c-3.9-5.2-10.1-8.8-18.4-10.7
	c-5.8-1.4-11.3-0.6-15.9,2.4c-7.5,4.8-10.8,14-12.3,20.9C412.2,335.9,414.1,341.8,418.5,345.7z M428.1,333.2
	c1.2-5.6,3.3-9.8,5.6-11.3c0.5-0.3,1.3-0.7,2.4-0.7c0.6,0,1.2,0.1,2,0.3c4.7,1.1,8.1,2.9,9.9,5.2c0.3,0.4,0.2,1.1-0.3,1.6l-5,4.8
	c-4.2,1.1-8.5,1.8-12.9,2l-0.7,0l-0.6-0.6C428.1,334.2,428,333.7,428.1,333.2z"/>
<path class="st0" d="M116.8,134.2c-1.1,5.4,0.7,11,4.8,14.6l5.1,4.5c2.9,2.6,6.5,3.8,10.2,3.8c3.9,0,7.7-1.4,10.6-4.3l10.4-10
	c5.6-5.4,6.3-14.1,1.7-20.2c-3.6-4.7-9.3-8-16.8-9.8c-5.4-1.3-10.5-0.5-14.8,2.2C121.1,119.6,118.1,128,116.8,134.2z M136.1,127.8
	c0.4-0.2,1.2-0.8,3.3-0.3c5.1,1.2,7.3,3,8.3,4.3c0,0,0,0.2-0.1,0.3l-10.4,10c-0.1,0.1-0.3,0.1-0.4,0l-5.1-4.5
	c-0.1-0.1-0.1-0.2-0.1-0.3C132.4,132.6,134.2,129,136.1,127.8z"/>
<path class="st0" d="M287.6,144.1l6.3,5.5c3.2,2.8,7.3,4.3,11.3,4.3c4.3,0,8.6-1.6,11.8-4.7l12.7-12.2c6.2-6,7-15.6,1.9-22.4
	c-4.2-5.5-10.7-9.3-19.5-11.4c-6.1-1.5-11.9-0.6-16.7,2.5c-8,5.1-11.5,14.9-13,22.2C281,133.8,283,140,287.6,144.1z M296.9,130.9
	c1.3-6.2,3.7-10.9,6.4-12.6c0.9-0.6,2.4-1.2,5.2-0.5c5.3,1.2,9.1,3.3,11.1,5.9c0.5,0.7,0.4,1.8-0.3,2.5l-12.7,12.2
	c-0.8,0.7-2,0.8-2.8,0.1l-6.3-5.5C297,132.4,296.8,131.6,296.9,130.9z"/>
<path class="st0" d="M391.2,214.6c-4.6-1.1-9-0.1-12.5,2.9c-10.2,8.7-9.4,33.4-8.9,40.8c0.1,2,1,3.8,2.5,5.1c3.3,3,7.5,4.4,11.7,4.4
	c4.4,0,8.9-1.6,12.3-4.9l13.6-13.1c6.5-6.2,7.3-16.2,1.9-23.3C407.4,220.8,400.5,216.8,391.2,214.6z M399.4,239l-13.6,13.1
	c-0.4,0.4-0.9,0.6-1.3,0.7c-0.3-11.9,1.7-21.2,3.5-23.5c5.6,1.4,9.7,3.6,11.8,6.4C400.6,236.6,400.4,238.1,399.4,239z"/>
<path class="st0" d="M75,298.6c7.1,0,14.3-2.9,21.7-8.7c4.8-3.8,6.8-9.2,5.7-15c-1.7-8.7-10.6-17.1-21.7-20.3
	c-5.9-1.7-12.3-0.4-17.1,3.6c-4.9,4.1-7.5,10.3-6.9,16.6l0.8,7.8c0.9,9,8.3,15.9,17.2,16C74.8,298.6,74.9,298.6,75,298.6z
	 M72.4,281.1l-0.8-7.8c-0.2-2,1-3.2,1.5-3.6c0.4-0.4,1.3-0.9,2.4-0.9c0.3,0,0.7,0,1,0.1c6.8,2,11,7,11.1,8.8
	c-0.1,0.1-0.1,0.2-0.3,0.3c-4.6,3.6-8.8,5.5-12.4,5.5c0,0-0.1,0-0.1,0C73.6,283.5,72.6,282.5,72.4,281.1z"/>
<path class="st0" d="M161.6,256c0,43.8,30,80.8,70.6,91.4c-5.3,2.5-9.6,5.6-13.7,8.5c-7.8,5.7-14.6,10.6-28.7,10.6
	c-11.5,0-17.8-7.2-27.1-19c-9.8-12.4-22-27.9-46.2-26.5c-23,1.3-29.2,14.6-34.2,25.2c-3.2,6.8-6,12.7-12.8,16.5
	c-3.6,2-4.9,6.6-2.9,10.2c2,3.6,6.6,4.9,10.2,2.9c11.1-6.1,15.5-15.6,19.1-23.2c4.6-9.9,7.4-15.8,21.5-16.6
	c16.4-0.9,24.3,9.2,33.5,20.8c9.1,11.6,19.5,24.7,38.9,24.7c19,0,28.8-7.1,37.5-13.4c7.8-5.7,14.6-10.6,28.7-10.6
	c10,0,15.9,2.5,19.9,4.7c14.3,7.9,23.2,23.2,23.2,40v23.5c0,14.4,11.7,26.1,26.1,26.1c14.4,0,26.1-11.7,26.1-26.1v-62.3
	c0-6.1,4.8-11.3,10.7-11.5c3.1-0.1,5.9,1,8.1,3.1s3.4,4.9,3.4,8v25.7c0,14.4,11.7,26.1,26.1,26.1c14.4,0,26.1-11.7,26.1-26.1
	c0-5.1,4-9.2,9-9.4c4.1-0.2,7.4-3.6,7.2-7.8c-0.2-4.1-3.6-7.4-7.8-7.2c-13.2,0.5-23.5,11.2-23.5,24.4c0,6.1-5,11.1-11.1,11.1
	s-11.1-5-11.1-11.1v-25.7c0-7.1-2.8-13.8-8-18.8s-11.9-7.6-19.1-7.3c-14.1,0.5-25.1,12.1-25.1,26.5v62.3c0,6.1-5,11.1-11.1,11.1
	c-6.1,0-11.1-5-11.1-11.1v-23.5c0-22.2-11.9-42.6-30.9-53.1c-1.1-0.6-2.2-1.2-3.3-1.7c40.6-10.6,70.6-47.5,70.6-91.4
	c0-52.1-42.4-94.4-94.4-94.4S161.6,203.9,161.6,256z M335.4,256c0,43.8-35.6,79.4-79.4,79.4s-79.4-35.6-79.4-79.4
	c0-43.8,35.6-79.4,79.4-79.4S335.4,212.2,335.4,256z"/>
<path class="st0" d="M142.9,214.6c-7.3-8.5-17.6-15.9-18.1-16.3c-1.6-1.1-3.6-1.6-5.5-1.3c-9.1,1.4-15.6,9.7-14.9,18.9l1.5,18.8
	c0.7,8.9,7.9,15.9,16.8,16.3c0.3,0,0.6,0,1,0c5.8,0,11.9-2,18-6c2.5-1.6,3.9-4.7,3.3-7.6c-0.6-3.1-0.9-6.3-0.9-9.4
	c0-2.5,0.2-5,0.5-7.4C144.9,218.4,144.3,216.3,142.9,214.6z M123.2,236c-1.2,0-2.2-1.1-2.4-2.5l-1.5-18.8c0-0.5,0.1-1,0.3-1.4
	c2.7,2.1,6.4,5.3,9.7,8.7c-0.2,2-0.3,4-0.3,6c0,2.2,0.1,4.4,0.3,6.6C127.1,235.6,125.1,236,123.2,236z"/>
</svg>
