<?xml version="1.0" encoding="utf-8"?>
<!-- Generator: Adobe Illustrator 23.0.3, SVG Export Plug-In . SVG Version: 6.00 Build 0)  -->
<svg version="1.1" id="Слой_1" xmlns="http://www.w3.org/2000/svg" xmlns:xlink="http://www.w3.org/1999/xlink" x="0px" y="0px"
	 viewBox="0 0 512 512" style="enable-background:new 0 0 512 512;" xml:space="preserve">
<style type="text/css">
	.st0{fill:#FFFFFF;}
</style>
<path class="st0" d="M256.5,276.3c-47.2,0-85.7,38.4-85.7,85.7s38.4,85.7,85.7,85.7c47.2,0,85.7-38.4,85.7-85.7
	S303.7,276.3,256.5,276.3z M256.5,432.6c-39,0-70.7-31.7-70.7-70.7s31.7-70.7,70.7-70.7c39,0,70.7,31.7,70.7,70.7
	S295.5,432.6,256.5,432.6z"/>
<path class="st0" d="M436,167.8h-0.6l17.1-82.8c1.3-6.1,0-12.4-3.4-17.2c-3.2-4.5-8-7.4-13.5-8.2l-28.9-3.8
	c-2.2-0.3-4.3-0.2-6.4,0.2l0.3-2.2c0.7-6.2-1.1-12.5-4.9-17.1c-3.6-4.3-8.7-6.9-14.3-7.2l-21.4-1.2c0.7-6.1-0.9-12.2-4.5-16.9
	c-3.5-4.5-8.4-7.3-13.9-7.9l-29.8-3.3c-5.5-0.6-11,1-15.4,4.6c-4.8,3.9-7.9,9.7-8.5,16l-2.7,28.1c-0.7-1.1-1.5-2.1-2.4-3
	c-4-4.1-9.2-6.3-14.7-6.3h-29.6c-3.9,0-7.7,1.1-11,3.2l-2.1-22.1c-0.6-6.3-3.7-12.2-8.5-16c-4.4-3.6-9.9-5.2-15.4-4.6l-29.8,3.3
	c-5.5,0.6-10.5,3.4-13.9,7.9c-3.6,4.7-5.2,10.8-4.5,16.9l-21.4,1.2c-5.6,0.3-10.6,2.9-14.3,7.2c-3.9,4.6-5.7,10.8-4.9,17.1l0.3,2.2
	c-2.1-0.4-4.3-0.5-6.4-0.2l-28.9,3.8c-5.5,0.7-10.3,3.6-13.5,8.2c-3.4,4.8-4.7,11.1-3.4,17.2l17.1,82.8H77c-5,0-9.8,2.2-13,6.1
	s-4.6,8.9-3.8,13.9l53.5,310.2c1.4,8.2,8.5,14.1,16.8,14.1h252c8.3,0,15.4-5.9,16.8-14.1l53.5-310.2c0.9-5-0.5-10-3.8-13.9
	C445.7,170,441,167.8,436,167.8z M398.1,74.5c1.4-2.7,4.1-4.3,6.7-3.9l28.9,3.8c1.7,0.2,2.7,1.2,3.2,2c1,1.5,1.4,3.5,1,5.5
	l-17.7,85.9h-11l7.3-57.7c0.7-5.8-0.9-11.6-4.6-16c-3.5-4.2-8.5-6.7-14.1-7l-1.2-0.1L398.1,74.5z M387.8,101.6l9.1,0.5
	c1.7,0.1,2.8,0.9,3.4,1.7c1,1.2,1.4,2.8,1.2,4.5l-7.5,59.6h-35l4.1-23.7c0.8-4.9-0.1-9.8-2.7-14L362,107c0.2-2.2,1.4-4.2,3.1-5.3
	c1-0.7,2.2-1,3.5-1L387.8,101.6L387.8,101.6z M350.6,42.8c0.1,0,0.2,0,0.3,0h0l29.6,1.7c1.8,0.1,3,1.1,3.6,1.9
	c1.2,1.5,1.8,3.5,1.5,5.7l-2.3,19.6c0,0,0,0,0,0l-1.7,14.7l-12.2-0.6c-11.4-0.6-21.4,8.4-22.3,20.1l-1.1,14.9l-7-1.1l4.8-69.4
	C344,46.1,347.1,42.7,350.6,42.8z M348.2,141.6l-4.6,27c-4.9,1.5-8.9,5.2-10.8,10.2c-5.9,15.3-16.1,28.3-29.5,37.7
	c-1.4,1-2.9,2-4.4,2.9l12.1-83.6c0.2-1.4,0.9-2.6,2.1-3.5c1.1-0.8,2.5-1.2,3.9-1l12.8,2c0,0,0,0,0,0l14.2,2.2c1.4,0.2,2.6,1,3.4,2.1
	S348.4,140.2,348.2,141.6z M286,195.7l16.7-173.5c0.2-2.3,1.3-4.5,3-5.8c0.9-0.7,2.4-1.6,4.3-1.4l29.8,3.3c1.8,0.2,3.1,1.3,3.7,2.2
	c1.3,1.7,1.8,3.9,1.5,6.2l-0.3,1.8c-0.1,0-0.2,0.1-0.4,0.1c-0.2,0.1-0.3,0.1-0.5,0.2c-0.5,0.2-0.9,0.3-1.4,0.5
	c-0.1,0-0.2,0.1-0.4,0.2c-0.9,0.4-1.7,0.8-2.6,1.4c-0.1,0-0.1,0.1-0.2,0.1c-0.5,0.3-1,0.7-1.5,1c0,0-0.1,0.1-0.1,0.1
	c-0.3,0.2-0.5,0.4-0.8,0.6c-0.1,0-0.1,0.1-0.2,0.1c-0.4,0.4-0.8,0.8-1.2,1.2c-0.1,0.1-0.2,0.2-0.3,0.3c-0.2,0.2-0.4,0.4-0.6,0.6
	c-0.2,0.2-0.4,0.5-0.6,0.7c-0.2,0.2-0.4,0.5-0.6,0.7c-0.1,0.2-0.3,0.4-0.4,0.6c-0.2,0.2-0.3,0.5-0.5,0.7c-0.2,0.3-0.4,0.6-0.5,0.9
	c-0.1,0.2-0.2,0.4-0.3,0.6c-0.2,0.3-0.4,0.7-0.5,1c-0.1,0.2-0.2,0.3-0.2,0.5c-0.2,0.4-0.3,0.7-0.5,1.1c-0.1,0.1-0.1,0.3-0.2,0.4
	c-0.2,0.5-0.3,0.9-0.5,1.4c0,0.1-0.1,0.2-0.1,0.3c-0.1,0.4-0.2,0.9-0.3,1.3c0,0.1,0,0.2-0.1,0.3c-0.1,0.5-0.2,1-0.3,1.5
	c0,0.1,0,0.2-0.1,0.4c-0.1,0.5-0.1,1.1-0.2,1.6l-4.7,68.1l-4.8-0.8c-5.4-0.9-10.8,0.5-15.1,3.7c-4.4,3.2-7.2,8-8,13.4l-10.3,71.6
	L286,195.7z M234.3,56.4c0.8-0.8,2.1-1.8,4-1.8h29.6c1.9,0,3.2,1,4,1.8c1.4,1.4,2.1,3.5,2.1,5.6l-3,129.7l-2.9-56
	c-0.3-5.8-2.8-11.3-6.9-15.3c-4.3-4.1-9.8-6.3-15.6-5.9l-12,0.6l-0.3-9.8l-1.1-43.3C232.2,59.8,232.9,57.8,234.3,56.4z M246.4,129.4
	c2.1-0.1,3.7,1.1,4.4,1.8c1.4,1.3,2.2,3.2,2.3,5.3l4.9,94.7c-0.5,0-1.1,0-1.6,0c-12.7,0-24.9-2.9-36.1-8.4l-8.5-84.5
	c-0.2-2,0.4-4,1.6-5.4c0.7-0.8,1.9-1.8,3.7-1.9L246.4,129.4z M169.5,20.6c0.7-0.9,1.9-2,3.7-2.2L203,15c1.9-0.2,3.4,0.6,4.3,1.4
	c1.7,1.4,2.8,3.5,3,5.8l8.1,83.7l0.3,10l-2.3,0.1c-5.6,0.3-10.6,2.8-14.3,7.1c-3.9,4.5-5.7,10.6-5.1,16.7l4.1,40.9l-9.3-22.3
	l-7.6-109.2c0-0.6-0.1-1.1-0.2-1.6c0-0.1,0-0.2-0.1-0.4c-0.1-0.5-0.2-1-0.3-1.5c0-0.1,0-0.2-0.1-0.3c-0.1-0.5-0.2-0.9-0.4-1.3
	c0-0.1-0.1-0.2-0.1-0.3c-0.1-0.5-0.3-0.9-0.5-1.4c0-0.1-0.1-0.3-0.1-0.4c-0.2-0.4-0.3-0.8-0.5-1.2c0-0.1-0.1-0.2-0.1-0.2
	c-0.2-0.4-0.4-0.9-0.7-1.3c-0.1-0.1-0.2-0.3-0.2-0.4c-0.2-0.4-0.5-0.8-0.7-1.2c-0.1-0.1-0.1-0.2-0.2-0.3c-0.2-0.3-0.4-0.6-0.7-0.9
	c-0.1-0.1-0.2-0.3-0.3-0.4c-0.3-0.4-0.6-0.7-0.9-1c-0.1-0.1-0.2-0.2-0.3-0.3c-0.3-0.3-0.5-0.6-0.8-0.8c-0.1-0.1-0.2-0.2-0.3-0.2
	c-0.3-0.3-0.7-0.6-1-0.9c-0.1-0.1-0.2-0.2-0.3-0.3c-0.4-0.3-0.8-0.6-1.1-0.9c-0.1,0-0.1-0.1-0.1-0.1c-0.4-0.3-0.8-0.5-1.2-0.7
	c-0.1-0.1-0.2-0.1-0.2-0.1c-0.4-0.3-0.9-0.5-1.3-0.7c-0.1,0-0.1-0.1-0.2-0.1c-0.5-0.2-0.9-0.4-1.4-0.6c0,0,0,0,0,0
	c-0.5-0.2-1-0.4-1.5-0.5c0,0,0,0-0.1,0l-0.3-1.8C167.6,24.5,168.2,22.2,169.5,20.6z M128.9,46.3c0.7-0.8,1.8-1.8,3.6-1.9l29.6-1.7h0
	c0,0,0.1,0,0.1,0c3.5-0.1,6.7,3.2,7,7.4l4.5,65l-3.7-8.9c-2.3-5.4-6.4-9.7-11.6-12c-0.6-0.3-1.3-0.6-2-0.8c0,0-0.1,0-0.1,0
	c-0.6-0.2-1.3-0.4-1.9-0.5c-0.1,0-0.1,0-0.2,0c-0.6-0.1-1.3-0.3-1.9-0.3c-0.1,0-0.2,0-0.2,0c-0.6-0.1-1.3-0.1-1.9-0.1
	c-0.1,0-0.2,0-0.3,0c-0.1,0-0.2,0-0.3,0c-0.3,0-0.7,0-1,0c-0.3,0-0.6,0-0.8,0c-0.4,0-0.8,0.1-1.3,0.2c-0.3,0-0.5,0.1-0.8,0.1
	c-0.5,0.1-0.9,0.2-1.4,0.3c-0.2,0.1-0.4,0.1-0.7,0.2c-0.7,0.2-1.3,0.4-2,0.7l-9,3.8l-1.4-11.5l-4-34.1
	C127.1,49.8,127.7,47.8,128.9,46.3z M120.4,119l4.4-1.9l4.5-1.9h0l18.2-7.6c2-0.8,3.8-0.2,4.7,0.2c1.8,0.8,3.2,2.3,4,4.2l37.3,89.5
	c-5.6-6.8-10.1-14.4-13.3-22.8c-2.6-6.7-8.8-11-15.9-11H137l-19.1-40.1c-0.9-1.9-1-3.9-0.3-5.6c0.1-0.4,0.3-0.8,0.6-1.2
	C118.7,120.1,119.4,119.4,120.4,119z M75.2,81.9c-0.4-2-0.1-4,1-5.5c0.6-0.8,1.6-1.8,3.2-2l28.9-3.8c2.5-0.3,5.2,1.3,6.7,4l1.6,13.5
	l1.8,15.6l-3.7,1.5c-5.1,2.1-9.1,6.2-11.1,11.5c-2.1,5.5-1.8,11.9,0.8,17.4l16,33.7H92.9L75.2,81.9z M437.9,185.1l-23.7,137.4h-49.1
	c-4.1,0-7.5,3.4-7.5,7.5c0,4.1,3.4,7.5,7.5,7.5h46.5l-7.8,45.2h-37.7c-4.1,0-7.5,3.4-7.5,7.5s3.4,7.5,7.5,7.5h35.1l-16.8,97.6
	c-0.2,1-1,1.7-2,1.7h-252c-1,0-1.8-0.7-2-1.7l-16.8-97.6h35.1c4.1,0,7.5-3.4,7.5-7.5s-3.4-7.5-7.5-7.5h-37.7l-7.8-45.2H148
	c4.1,0,7.5-3.4,7.5-7.5c0-4.1-3.4-7.5-7.5-7.5H98.7L75,185.1c-0.1-0.8,0.2-1.3,0.4-1.6c0.3-0.3,0.8-0.7,1.5-0.7h87.3
	c0.8,0,1.6,0.5,1.9,1.4c6.9,18.1,19,33.5,34.9,44.6c16.3,11.4,35.4,17.4,55.4,17.4c1,0,2.1,0,3.1-0.1c0.5,0,1,0,1.5-0.1
	c0.4,0,0.9,0,1.3-0.1c4.6-0.3,9.1-0.9,13.5-1.8c0,0,0,0,0,0c12.9-2.6,25.1-7.8,36-15.5c15.9-11.1,28-26.6,34.9-44.6
	c0.3-0.8,1.1-1.4,1.9-1.4H436c0.8,0,1.3,0.4,1.5,0.7C437.8,183.8,438.1,184.4,437.9,185.1z"/>
</svg>
