<?xml version="1.0" encoding="utf-8"?>
<!-- Generator: Adobe Illustrator 23.0.3, SVG Export Plug-In . SVG Version: 6.00 Build 0)  -->
<svg version="1.1" id="Слой_1" xmlns="http://www.w3.org/2000/svg" xmlns:xlink="http://www.w3.org/1999/xlink" x="0px" y="0px"
	 viewBox="0 0 512 512" style="enable-background:new 0 0 512 512;" xml:space="preserve">
<style type="text/css">
	.st0{fill:#FFFFFF;}
</style>
<path class="st0" d="M398.5,118.7c0-22.7-16.6-41.5-38.3-45.1C359,49.6,339,30.4,314.6,30.4c-4.9,0-9.7,0.8-14.4,2.3
	c-4.6-1.5-9.4-2.3-14.4-2.3c-2.6,0-5.1,0.2-7.6,0.6c-6.2-18.1-23.5-31-43.3-31c-18,0-34.2,10.7-41.5,26.7c-2.7-0.5-5.5-0.8-8.3-0.8
	c-25.2,0-45.7,20.5-45.7,45.7c0,1.8,0.1,3.7,0.3,5.5c-16.1,7.3-26.9,23.5-26.9,41.6c0,0.5,0.1,1,0.1,1.5c-0.1,0.4-0.1,0.9-0.1,1.4
	v43.9c0,4.1,3.4,7.5,7.5,7.5s7.5-3.4,7.5-7.5v-31.2c5.2,3.1,10.2,6.3,15.1,9.5c6.9,4.5,13.1,8.5,18.9,11.6c0.1,0,0.1,0.1,0.2,0.1
	c0.7,0.4,1.5,0.8,2.2,1.1c0,0,0.1,0,0.1,0.1c0.7,0.3,1.4,0.7,2.1,1c0.2,0.1,0.3,0.1,0.5,0.2c0.7,0.3,1.4,0.6,2.1,0.8
	c3,1.1,6.1,2.2,9.2,3.2c1.9,0.6,3.8,1.2,5.7,1.8c0.6,0.2,1.1,0.4,1.7,0.5c0.8,0.2,1.6,0.5,2.4,0.7c1.1,0.3,2.2,0.7,3.4,1
	c0.3,0.1,0.5,0.1,0.8,0.2c7.5,2,15.3,3.9,23.3,5.4c1.6,0.3,3.2,0.6,4.8,1c0.4,0.1,0.8,0.2,1.2,0.3c1.2,0.3,2.4,0.6,3.6,0.9
	c0.4,0.1,0.9,0.2,1.3,0.3c1.2,0.3,2.4,0.6,3.6,1c0.4,0.1,0.8,0.2,1.2,0.3c1.3,0.4,2.6,0.8,3.9,1.2c0.3,0.1,0.5,0.2,0.8,0.3
	c4.8,1.5,9.6,3.3,14.3,5.2c0.3,0.1,0.7,0.3,1,0.4c1.2,0.5,2.3,1,3.5,1.5c33.3,14.7,62.8,39.1,85.1,69c0,0.1,0.1,0.1,0.1,0.2
	c1.4,1.8,2.7,3.7,4,5.6c0.5,0.7,1,1.5,1.5,2.2c0.5,0.7,0.9,1.4,1.4,2.1c0.9,1.4,1.8,2.8,2.7,4.2c0.1,0.1,0.2,0.3,0.3,0.4
	c19,30.1,30.8,64.3,33.2,98.6v0c0.1,1.9,0.2,3.8,0.3,5.7c0,0.4,0,0.9,0.1,1.3c0.1,1.9,0.1,3.9,0.1,5.8v20.8c0,4.1,3.4,7.5,7.5,7.5
	s7.5-3.4,7.5-7.5L398.5,118.7L398.5,118.7z M252.6,166.5c-8.4-3.3-16.9-5.9-25.5-8c-0.2,0-0.3-0.1-0.5-0.1c-1.3-0.3-2.5-0.6-3.8-0.9
	c-1-0.2-2-0.4-3-0.6c-0.4-0.1-0.9-0.2-1.3-0.3c-11.1-2.1-21.8-4.8-31.8-8c-0.6-0.2-1.2-0.4-1.8-0.6c0,0,0,0-0.1,0
	c-3.5-1.1-6.9-2.3-10.3-3.6c0,0,0,0,0,0c-0.5-0.2-0.9-0.4-1.4-0.6c-0.2-0.1-0.3-0.1-0.5-0.2c-0.3-0.1-0.7-0.3-1.1-0.5
	c-0.2-0.1-0.3-0.2-0.5-0.2c-0.4-0.2-0.7-0.4-1.1-0.5c-0.1-0.1-0.3-0.1-0.4-0.2c-0.5-0.3-1-0.5-1.5-0.8c-0.1-0.1-0.2-0.1-0.3-0.2
	c-0.4-0.2-0.8-0.4-1.2-0.7c-0.2-0.1-0.4-0.3-0.7-0.4c-0.3-0.2-0.6-0.4-1-0.5c-0.2-0.1-0.5-0.3-0.7-0.4c-0.3-0.2-0.7-0.4-1-0.6
	c-0.2-0.1-0.4-0.3-0.6-0.4c-0.5-0.3-1.1-0.6-1.6-1c4.4-34.5,23.6-59.9,45.9-59.9c7.6,0,15,3,21.6,8.6c0.2,0.2,0.4,0.4,0.6,0.5
	c3.6,3.1,6.9,7,9.9,11.6c9.5,14.3,14.7,33.5,14.7,54C253.4,157,253.1,161.8,252.6,166.5z M251.3,89.8c-1-1.6-2.1-3.1-3.2-4.5
	c3.8-0.5,7.5-0.7,11.3-0.7c18.2,0,35.6,5.5,50.5,15.8c5,3.5,9.5,7.4,13.7,11.7c-3.2-0.7-6.5-1.1-9.8-1.1c-14.1,0-27.9,7-38.8,19.6
	c-2.5,3-4.9,6.2-7.1,9.7C266.2,121.3,260.5,103.7,251.3,89.8z M293.8,180.5c-1.5,1.2-3,2.3-4.6,3.5c-0.3,0.2-0.5,0.4-0.8,0.6
	c-6-3.8-12.2-7.3-18.5-10.4c6.9-28.7,24.4-48.3,43.7-48.3c11.9,0,23.4,7.4,32.1,20.7c-0.2,0.1-0.5,0.3-0.7,0.4
	c-2.1,1.1-4.1,2.3-6.2,3.4c-0.4,0.2-0.9,0.5-1.3,0.7c-2,1.1-3.9,2.3-5.9,3.5c-0.4,0.3-0.9,0.5-1.3,0.8c-2,1.2-4,2.4-6,3.7
	c-0.4,0.2-0.7,0.5-1.1,0.7c-2.1,1.3-4.2,2.7-6.3,4.1c-0.2,0.1-0.4,0.3-0.6,0.4c-7,4.6-13.9,9.5-20.6,14.7
	C295.1,179.5,294.5,180,293.8,180.5z M383.5,300.4c-6.3-16.3-14.5-32-24.5-46.9c0-0.1-0.1-0.1-0.1-0.2c-1.1-1.7-2.3-3.4-3.5-5
	c-0.1-0.1-0.1-0.2-0.2-0.3c-1.1-1.6-2.2-3.1-3.4-4.6c-0.5-0.7-1.1-1.4-1.6-2.2c-0.6-0.7-1.1-1.5-1.7-2.2c-0.7-0.9-1.4-1.7-2.1-2.6
	c-0.2-0.2-0.3-0.4-0.5-0.6c-0.3-0.4-0.6-0.7-0.9-1c-0.8-0.9-1.5-1.8-2.3-2.7c-0.4-0.5-0.8-0.9-1.2-1.4c-1.3-1.5-2.5-2.9-3.8-4.4
	c-0.7-0.8-1.5-1.6-2.2-2.5c-0.5-0.5-1-1.1-1.5-1.6c-1-1-2-2.1-3-3.1c-0.3-0.3-0.6-0.6-0.9-0.9c-9-9.1-18.5-17.4-28.6-24.7
	c0.2-0.1,0.3-0.3,0.5-0.4c1.3-1,2.5-1.9,3.8-2.9c0.7-0.6,1.5-1.1,2.2-1.7c0.7-0.5,1.4-1,2.1-1.6c0.9-0.6,1.7-1.3,2.6-1.9
	c0.6-0.4,1.1-0.8,1.7-1.2c1-0.7,1.9-1.4,2.9-2.1c0.4-0.3,0.7-0.5,1.1-0.8c5.1-3.5,10.2-6.9,15.4-10.1c0.2-0.1,0.4-0.3,0.6-0.4
	c1.2-0.8,2.5-1.5,3.7-2.3c0.2-0.1,0.4-0.2,0.6-0.4c5.4-3.3,10.9-6.4,16.4-9.3c0.1-0.1,0.2-0.1,0.3-0.2c1.3-0.7,2.6-1.4,3.9-2
	c7.9-4.1,16-7.9,24.1-11.4V300.4z M383.5,128.7c-8.2,3.3-16.3,7-24.3,10.9c-1.2-1.9-2.4-3.7-3.7-5.4c-7.6-18.7-20.4-34.7-37-46.2
	c-17.4-12.1-37.8-18.4-59-18.4c-8.1,0-16.2,1-24.1,2.8c-8.7-6.6-18.5-10.1-28.7-10.1c-15.7,0-30.5,8.4-41.9,23.6
	c-8.6,11.5-14.7,26.3-17.7,42.5c-5.9-3.8-12.2-7.8-18.9-11.4c0.7-13.1,9.7-24.4,22.4-27.9c1.9-0.5,3.6-1.8,4.5-3.5
	c1-1.7,1.2-3.8,0.7-5.7c-0.8-2.7-1.1-5.5-1.1-8.3c0-16.9,13.8-30.7,30.7-30.7c3.6,0,7.1,0.6,10.4,1.8c2,0.7,4.1,0.6,6-0.4
	c1.9-1,3.2-2.7,3.8-4.7c3.6-13.3,15.8-22.6,29.6-22.6c15.1,0,28.2,11.3,30.4,26.2c0.3,2.2,1.6,4.2,3.6,5.4c1.9,1.2,4.3,1.4,6.4,0.6
	c3.4-1.2,6.9-1.8,10.5-1.8c4,0,7.9,0.8,11.5,2.3c1.8,0.7,3.8,0.7,5.6,0c3.7-1.5,7.6-2.3,11.5-2.3c16.9,0,30.7,13.8,30.7,30.7
	c0,1.2-0.1,2.3-0.2,3.6c-0.3,2.1,0.4,4.3,1.9,5.9c1.4,1.6,3.5,2.5,5.6,2.5c0.1,0,0.2,0,0.4,0c16.9,0,30.6,13.8,30.6,30.7V128.7z"/>
<path class="st0" d="M391,427c-4.1,0-7.5,3.4-7.5,7.5v27.2c0,19.5-17.6,35.3-39.3,35.3h-177c-21.6,0-39.2-15.8-39.2-35.3V200.3
	c0-4.1-3.4-7.5-7.5-7.5s-7.5,3.4-7.5,7.5v261.4c0,27.7,24.3,50.3,54.3,50.3h177c29.9,0,54.3-22.6,54.3-50.3v-27.2
	C398.5,430.3,395.1,427,391,427z"/>
</svg>
