<?xml version="1.0" encoding="utf-8"?>
<!-- Generator: Adobe Illustrator 23.0.3, SVG Export Plug-In . SVG Version: 6.00 Build 0)  -->
<svg version="1.1" id="Слой_1" xmlns="http://www.w3.org/2000/svg" xmlns:xlink="http://www.w3.org/1999/xlink" x="0px" y="0px"
	 viewBox="0 0 512 512" style="enable-background:new 0 0 512 512;" xml:space="preserve">
<style type="text/css">
	.st0{fill:#FFFFFF;}
</style>
<path class="st0" d="M423.2,0c-1.3,0-2.7,0-4,0c-67.4,0-132.7,13.2-194.3,39.2c-59.4,25.1-112.8,61.1-158.7,107l-0.4,0.4
	c-13.2,13.2-13.2,34.8,0,48l19.3,19.3c6.4,6.4,15,10,24.2,10h0c9.2,0,17.7-3.6,24.2-10l0.3-0.3c2.8-2.8,6.4-4.3,10.3-4.3h0.2
	c4,0,7.8,1.7,10.6,4.6l39.2,41c4,4.2,9.3,6.5,15.1,6.6h0.2c5.7,0,11-2.2,15-6.2c8.3-8.3,8.5-22,0.3-30.5l-28.2-29.5
	c-2.5-2.6-2.7-6.8-0.3-9.3c1.3-1.3,2.9-2,4.7-2h0c1.8,0,3.5,0.7,4.7,2l8.9,9.3c8.1,8.5,21.3,9.2,29.9,1.7c4.5-3.9,7.1-9.3,7.4-15.3
	c0.3-5.8-1.9-11.6-5.9-15.9l-6.4-6.7c-3.3-3.5-4.7-8.2-3.9-12.9c0.8-4.7,3.8-8.6,8.1-10.6c54.9-26.6,114-40,175.5-40
	c1.2,0,2.4,0,3.6,0c9.1,0.1,17.7-3.4,24.1-9.8c6.5-6.4,10.1-15,10.1-24.1V34C457,15.4,441.8,0.2,423.2,0z M442,61.5
	c0,5.1-2,9.9-5.6,13.5c-3.6,3.6-8.4,5.6-13.4,5.5c-1.2,0-2.5,0-3.7,0c-63.8,0-125,14-182,41.5c-8.6,4.2-14.6,12-16.3,21.5
	c-1.7,9.5,1.1,18.9,7.8,25.9l6.4,6.7c1.2,1.3,1.9,3,1.8,4.8s-0.9,3.4-2.2,4.6c-2.6,2.2-6.7,1.9-9.3-0.7l-8.9-9.3
	c-4-4.2-9.7-6.6-15.6-6.6c0,0,0,0,0,0c-5.9,0-11.5,2.4-15.6,6.7c-7.9,8.3-7.8,21.5,0.3,30L214,235c2.5,2.6,2.5,7-0.1,9.6
	c-1.2,1.2-2.8,1.8-4.5,1.8c-1.7,0-3.3-0.7-4.4-1.9l-39.2-41c-5.6-5.8-13.1-9.1-21.2-9.2c-0.1,0-0.2,0-0.4,0
	c-7.9,0-15.3,3.1-20.9,8.6l-0.1,0.1l-0.1,0.1l-0.2,0.2c-3.6,3.6-8.4,5.6-13.6,5.6c0,0,0,0,0,0c-5.1,0-10-2-13.6-5.6L76.5,184
	c-7.4-7.4-7.4-19.4,0-26.8l0.4-0.4c44.5-44.5,96.2-79.4,153.9-103.8c59.7-25.2,123.1-38,188.4-38c1.3,0,2.6,0,3.9,0h0
	c10.4,0.1,18.9,8.6,18.9,19V61.5z"/>
<path class="st0" d="M434.2,114.4c-4.1,0-7.5,3.4-7.5,7.5v369.4c0,3.5-2.7,4.9-3.5,5.2c-0.8,0.3-3.7,1.3-6.2-1.2L153.6,231.8
	c-2.9-2.9-7.7-2.9-10.6,0s-2.9,7.7,0,10.6l263.5,263.5c4,4,9.2,6.1,14.5,6.1c2.7,0,5.4-0.5,8-1.6c7.9-3.3,12.8-10.6,12.8-19.1V121.9
	C441.7,117.7,438.4,114.4,434.2,114.4z"/>
<path class="st0" d="M377.4,104.8c-18,0-32.7,14.7-32.7,32.7s14.7,32.7,32.7,32.7c18,0,32.7-14.7,32.7-32.7S395.5,104.8,377.4,104.8
	z M377.4,155.1c-9.8,0-17.7-7.9-17.7-17.7s7.9-17.7,17.7-17.7c9.8,0,17.7,7.9,17.7,17.7S387.2,155.1,377.4,155.1z"/>
<path class="st0" d="M248.6,298.1c0,16.7,13.6,30.3,30.3,30.3c16.7,0,30.3-13.6,30.3-30.3c0-16.7-13.6-30.3-30.3-30.3
	C262.2,267.9,248.6,281.4,248.6,298.1z M278.9,282.9c8.4,0,15.3,6.9,15.3,15.3s-6.9,15.3-15.3,15.3s-15.3-6.9-15.3-15.3
	S270.5,282.9,278.9,282.9z"/>
<path class="st0" d="M388.2,263.4c-17.3,0-31.3,14.1-31.3,31.3s14.1,31.3,31.3,31.3s31.3-14.1,31.3-31.3S405.5,263.4,388.2,263.4z
	 M388.2,311.1c-9,0-16.3-7.3-16.3-16.3c0-9,7.3-16.3,16.3-16.3c9,0,16.3,7.3,16.3,16.3C404.6,303.7,397.2,311.1,388.2,311.1z"/>
<path class="st0" d="M413.6,385.3c0-18.4-15-33.4-33.4-33.4h-5.5c-18.4,0-33.4,15-33.4,33.4c0,8,6.5,14.5,14.5,14.5h2l-0.3,5.9
	c-0.2,3.6,1.1,7.3,3.6,9.9c2.5,2.6,6,4.2,9.7,4.2h13.3c3.6,0,7.2-1.5,9.7-4.2s3.8-6.3,3.6-9.9l-0.3-5.9h2
	C407.1,399.8,413.6,393.3,413.6,385.3z M392.1,384.8c-2.8,0-5.5,1.2-7.4,3.2c-1.9,2-2.9,4.8-2.8,7.6l0.5,9.2h-9.9l0.5-9.2
	c0.1-2.8-0.9-5.6-2.8-7.6c-1.9-2-4.6-3.2-7.4-3.2h-6.5c0.3-9.9,8.4-17.9,18.4-17.9h5.5c10,0,18.1,8,18.4,17.9H392.1z"/>
<path class="st0" d="M309.4,160.2c-21,0-38,17.1-38,38v6.5c0,21,17.1,38,38,38c8.7,0,15.7-7.1,15.7-15.7v-3.7l8.3,0.4
	c3.9,0.2,7.8-1.2,10.7-3.9c2.9-2.7,4.5-6.5,4.5-10.5v-15.7c0-3.9-1.6-7.7-4.5-10.5s-6.8-4.1-10.7-3.9l-8.3,0.4v-3.7
	C325.2,167.3,318.1,160.2,309.4,160.2z M333.7,194.2v14.5l-12.2-0.6c-2.9-0.1-5.8,0.9-7.9,2.9s-3.3,4.9-3.3,7.8v8.2
	c0,0.4-0.3,0.7-0.7,0.7c-12.7,0-23-10.3-23-23v-6.5c0-12.7,10.3-23,23-23c0.4,0,0.7,0.3,0.7,0.7v8.2c0,2.9,1.2,5.8,3.3,7.8
	s5,3.1,7.9,2.9L333.7,194.2z"/>
</svg>
