<?xml version="1.0" encoding="utf-8"?>
<!-- Generator: Adobe Illustrator 23.0.3, SVG Export Plug-In . SVG Version: 6.00 Build 0)  -->
<svg version="1.1" id="Слой_1" xmlns="http://www.w3.org/2000/svg" xmlns:xlink="http://www.w3.org/1999/xlink" x="0px" y="0px"
	 viewBox="0 0 511 512" style="enable-background:new 0 0 511 512;" xml:space="preserve">
<style type="text/css">
	.st0{fill:#FFFFFF;}
</style>
<path class="st0" d="M481.4,171.1l-29.5-29.7c-4.2-4.2-10.7-5.4-16.1-2.9l-53.5,24.5h-5.1l77.9-107.8c2.3-3.1,3.1-6.9,2.5-10.7
	c-0.6-3.8-2.7-7.1-5.9-9.3l-11.4-8c-3.1-2.2-7-3.1-10.7-2.4c-3.8,0.7-7.1,2.8-9.2,6l-72.3,106c-4.6-2.3-9.6-3.7-14.8-4.2l37.8-109.4
	c1.3-3.6,1-7.5-0.7-11c-1.7-3.4-4.7-6-8.3-7.2l-13.2-4.4c-3.7-1.2-7.6-0.9-11,0.8s-5.9,4.7-7.1,8.4l-36.2,114.9
	c-7.4-11.4-20.2-18.9-34.5-18.9c-7.8,0-15.1,2.2-21.4,6.1c1.9-10.7,2.3-20.4,1.7-26.5c-0.6-6.1-2.1-9.8-5-12
	c-2.2-1.7-4.9-2.3-7.6-1.8c-6.3,1.2-10.3,7.7-18.2,20.8c-5,8.3-11.3,18.6-19.1,29c-3.4,4.5-8.3,8.3-14.6,12c-0.6-1.6-1.5-2.9-2.7-4
	c-2.2-2.1-5.2-3-8.3-2.6c-3.1,0.4-7.9,1-24.9,25.8c-2.2,3.2-4.7,6.2-7.6,9.2c-0.3,0.3-0.6,0.7-0.9,1h-0.7l-53.5-24.5
	c-5.4-2.5-11.9-1.3-16.1,2.9l-29.5,29.7c-3.2,3.2-4.7,7.8-4,12.3s3.5,8.4,7.5,10.5l45.4,23.6l47.6,276.4
	c1.8,10.5,10.8,18.1,21.5,18.1h213.6c10.6,0,19.7-7.6,21.5-18.1l47.6-276.4l45.4-23.6c4-2.1,6.8-6,7.5-10.5S484.6,174.4,481.4,171.1
	z M388.3,205h-41.4l14.5-20.1c0.5,0.1,1,0.2,1.5,0.2c0.1,0,0.2,0,0.3,0C375.4,185.1,385.7,193.6,388.3,205z M432.4,40.1l10,7
	L339.8,188.9c-0.1-0.3-0.2-0.5-0.3-0.7c0-0.1-0.1-0.3-0.1-0.4c-0.8-2.4-1.9-4.7-3.1-6.8L432.4,40.1z M339.4,149.6l-13.8,20.2
	c-1.4-0.9-2.8-1.7-4.3-2.4l6.8-19.6c0.6,0,1.1-0.1,1.7-0.1C333.1,147.7,336.4,148.3,339.4,149.6z M344.9,15.4l11.6,3.8l-49.9,144.5
	c-2.7-0.2-5.4-0.2-8.3,0.1c-0.1,0-0.1,0-0.2,0L344.9,15.4z M289.5,181c7.1-2.4,14.4-3,20.5-1.6c0.1,0,0.1,0,0.2,0
	c4,0.9,8,2.8,11.1,6.5c0,0,0,0,0,0c1.2,1.4,2.2,3.1,3.1,4.9c0,0,0,0.1,0,0.1c0.4,0.9,0.7,1.8,1,2.8c0,0.1,0.1,0.2,0.1,0.3
	c0.1,0.4,0.2,0.8,0.3,1.2c0,0.1,0.1,0.3,0.1,0.4c0.1,0.5,0.2,1,0.3,1.5v0c0,0,0,0,0,0c0.2,1.2,0.5,2.4,0.7,3.6
	c0.1,0.4,0.2,0.7,0.3,1.1c0.2,0.9,0.4,1.7,0.6,2.6c0.1,0.2,0.1,0.5,0.2,0.7h-59.7c0,0,0,0,0,0c-0.5-0.4-1.1-0.7-1.7-1.1
	c-0.1-0.1-0.3-0.2-0.4-0.3c-0.7-0.4-1.4-0.9-2.1-1.3c4.9-10.5,14.7-17.8,25-21.3C289.3,181,289.4,181,289.5,181z M226.9,145.9
	c0-0.1,0.1-0.1,0.1-0.2c1.5,0.2,3-0.1,4.3-0.8c1.9-1,3.3-2.7,3.8-4.7c3-11.2,13.3-19.1,25-19.1c12.8,0,23.8,9.5,25.6,22.1
	c0.2,1.5,0.9,2.8,1.8,3.9l-6.6,20.9c-12.4,5.1-23.9,14.3-30.1,27.2c-19.2-8.7-39.9-13-53.6-15.1c0,0,0.1-0.1,0.1-0.1
	c0.7-0.7,1.3-1.4,2.1-2.1c0.1-0.1,0.2-0.3,0.4-0.4c0.7-0.8,1.5-1.5,2.2-2.3c0.1-0.1,0.2-0.3,0.4-0.4c0.8-0.8,1.6-1.7,2.4-2.5
	c0.1-0.1,0.2-0.2,0.3-0.4c0.8-0.9,1.7-1.8,2.6-2.7c0.1-0.1,0.2-0.2,0.3-0.3c0.9-1,1.8-1.9,2.7-2.9c0.1-0.1,0.2-0.2,0.3-0.3
	c1-1,1.9-2.1,2.9-3.2c0.1-0.1,0.1-0.1,0.2-0.2c1-1.1,2.1-2.3,3.1-3.4c0,0,0,0,0,0c1.1-1.2,2.2-2.4,3.3-3.7c0,0,0,0,0.1-0.1
	c0.6-0.6,1.1-1.3,1.6-1.9c0.1-0.2,0.3-0.4,0.4-0.5c0.4-0.5,0.8-1.1,1.2-1.6c0.1-0.2,0.3-0.4,0.4-0.6c0.4-0.6,0.8-1.2,1.2-1.8
	c0.1-0.2,0.2-0.3,0.3-0.5C226.1,147.3,226.5,146.6,226.9,145.9z M140.7,175.4c0,0,0.1-0.1,0.1-0.1c0.7-0.9,1.5-1.8,2.3-2.7
	c3.5-3.5,6.6-7.3,9.3-11.2c4.9-7.1,8.4-11.7,10.9-14.6c0.8,1.3,1.9,2.5,3.3,3.3c3.1,2,7.1,2.1,10.4,0.3c11-6,19.6-11.7,25.6-19.8
	c8.3-11.1,14.8-21.7,20-30.3c0.9-1.5,1.9-3.1,2.8-4.6c-0.7,10.5-3.3,25.7-9.1,37.9c-2.2,4.6-4.6,8.4-7.3,11.4
	c-18.1,20.4-33.2,35.3-33.4,35.4c-0.2,0.2-0.5,0.5-0.7,0.7c0,0.1-0.1,0.1-0.1,0.2c-0.2,0.2-0.3,0.5-0.5,0.8c0,0,0,0,0,0.1
	c-0.2,0.3-0.3,0.6-0.4,0.9c0,0.1,0,0.1-0.1,0.2c-0.1,0.3-0.2,0.6-0.3,0.8c0,0,0,0.1,0,0.1c-0.1,0.3-0.1,0.6-0.1,1c0,0.1,0,0.1,0,0.2
	c0,0.3,0,0.6,0,0.9c0,0,0,0.1,0,0.1c0,0.3,0.1,0.7,0.1,1c0,0,0,0.1,0,0.1c0.1,0.3,0.2,0.6,0.3,0.9c0,0,0,0,0,0.1c0,0,0,0,0,0
	c0.1,0.3,0.3,0.6,0.4,0.9c0,0,0,0.1,0.1,0.1c0.1,0.3,0.3,0.5,0.5,0.7c0,0,0.1,0.1,0.1,0.1c0.2,0.2,0.4,0.5,0.6,0.7c0,0,0,0,0.1,0.1
	c0,0,0.1,0.1,0.1,0.1c0.2,0.2,0.4,0.4,0.7,0.6c0.1,0,0.1,0.1,0.2,0.1c0.5,0.4,1.1,0.7,1.7,0.9c0.1,0,0.1,0,0.2,0.1
	c0.3,0.1,0.6,0.2,0.9,0.3c0,0,0.1,0,0.1,0c0.3,0.1,0.6,0.1,1,0.1c0,0,0.1,0,0.1,0c0.4,0,27.6,1.9,54.1,11.5h-95.8
	c-0.2-0.8-0.4-1.6-0.5-2.4C135.2,188,136.7,180.9,140.7,175.4z M123.3,205h-17.8l16-16.1C121.5,193.7,122.1,199,123.3,205z
	 M71.9,152.2C71.9,152.2,71.9,152.2,71.9,152.2L71.9,152.2z M43.2,181l28.3-28.5l44.6,20.4l-30.2,30.3L43.2,181z M399.1,322.2h-46.3
	c-4.2,0-7.6,3.4-7.6,7.6c0,4.2,3.4,7.6,7.6,7.6h43.7l-7.1,41.3h-35.6c-4.2,0-7.6,3.4-7.6,7.6c0,4.2,3.4,7.6,7.6,7.6h33l-16.8,97.6
	c-0.6,3.2-3.3,5.5-6.6,5.5H149.7c-3.3,0-6-2.3-6.6-5.5l-16.8-97.6h32.3c4.2,0,7.6-3.4,7.6-7.6c0-4.2-3.4-7.6-7.6-7.6h-34.9
	l-7.1-41.3h43.7c4.2,0,7.6-3.4,7.6-7.6c0-4.2-3.4-7.6-7.6-7.6H114L96.4,220.1h320.3L399.1,322.2z M402.7,200.2l4.8,4.8h-3.8
	C403.5,203.4,403.1,201.8,402.7,200.2z M427.1,203.3L396.9,173l44.6-20.4l28.3,28.5L427.1,203.3z"/>
<path class="st0" d="M256.5,288.1c-39.5,0-71.6,32.1-71.6,71.6c0,39.5,32.1,71.6,71.6,71.6c39.5,0,71.6-32.1,71.6-71.6
	S296,288.1,256.5,288.1z M256.5,416.1c-31.1,0-56.4-25.3-56.4-56.4s25.3-56.4,56.4-56.4c31.1,0,56.4,25.3,56.4,56.4
	S287.6,416.1,256.5,416.1z"/>
</svg>
